<?xml version="1.0" encoding="utf-8" standalone="no"?>
<!DOCTYPE svg PUBLIC "-//W3C//DTD SVG 1.1//EN"
  "http://www.w3.org/Graphics/SVG/1.1/DTD/svg11.dtd">
<svg xmlns:xlink="http://www.w3.org/1999/xlink" width="852.564pt" height="451pt" viewBox="0 0 852.564 451" xmlns="http://www.w3.org/2000/svg" version="1.1">
 <metadata>
  <rdf:RDF xmlns:dc="http://purl.org/dc/elements/1.1/" xmlns:cc="http://creativecommons.org/ns#" xmlns:rdf="http://www.w3.org/1999/02/22-rdf-syntax-ns#">
   <cc:Work>
    <dc:type rdf:resource="http://purl.org/dc/dcmitype/StillImage"/>
    <dc:date>2026-02-07T12:13:33.340915</dc:date>
    <dc:format>image/svg+xml</dc:format>
    <dc:creator>
     <cc:Agent>
      <dc:title>Matplotlib v3.10.7, https://matplotlib.org/</dc:title>
     </cc:Agent>
    </dc:creator>
   </cc:Work>
  </rdf:RDF>
 </metadata>
 <defs>
  <style type="text/css">*{stroke-linejoin: round; stroke-linecap: butt}</style>
 </defs>
 <g id="figure_1">
  <g id="patch_1">
   <path d="M 0 451 
L 852.564 451 
L 852.564 0 
L 0 0 
L 0 451 
z
" style="fill: none"/>
  </g>
  <g id="axes_1">
   <g id="patch_2">
    <path d="M 140.136 93.28 
C 144.909656 93.28 149.488438 91.383406 152.863922 88.007922 
C 156.239406 84.632438 158.136 80.053656 158.136 75.28 
C 158.136 70.506344 156.239406 65.927562 152.863922 62.552078 
C 149.488438 59.176594 144.909656 57.28 140.136 57.28 
C 135.362344 57.28 130.783562 59.176594 127.408078 62.552078 
C 124.032594 65.927562 122.136 70.506344 122.136 75.28 
C 122.136 80.053656 124.032594 84.632438 127.408078 88.007922 
C 130.783562 91.383406 135.362344 93.28 140.136 93.28 
L 140.136 93.28 
z
" clip-path="url(#pb93808845f)" style="fill: none; stroke: #000000; stroke-width: 2; stroke-linejoin: miter"/>
   </g>
   <g id="line2d_1">
    <path d="M 494.136 207.28 
L 494.136 222.28 
L 509.136 222.28 
L 509.136 252.28 
L 494.136 252.28 
L 494.136 267.28 
" clip-path="url(#pb93808845f)" style="fill: none; stroke: #000000; stroke-width: 2; stroke-linecap: round"/>
   </g>
   <g id="line2d_2">
    <path d="M 509.136 252.28 
L 503.136 252.28 
" clip-path="url(#pb93808845f)" style="fill: none; stroke: #000000; stroke-width: 2; stroke-linecap: round"/>
   </g>
   <g id="patch_3">
    <path d="M 503.136 256.78 
L 494.136 252.28 
L 503.136 247.78 
z
" clip-path="url(#pb93808845f)"/>
   </g>
   <g id="line2d_3">
    <path d="M 512.136 225.28 
L 512.136 249.28 
" clip-path="url(#pb93808845f)" style="fill: none; stroke: #000000; stroke-width: 2; stroke-linecap: round"/>
   </g>
   <g id="line2d_4">
    <path d="M 512.136 237.28 
L 527.136 237.28 
" clip-path="url(#pb93808845f)" style="fill: none; stroke: #000000; stroke-width: 2; stroke-linecap: round"/>
   </g>
   <g id="line2d_5">
    <path d="M 494.136 327.28 
L 494.136 312.28 
L 479.136 312.28 
L 479.136 282.28 
L 494.136 282.28 
L 494.136 267.28 
" clip-path="url(#pb93808845f)" style="fill: none; stroke: #000000; stroke-width: 2; stroke-linecap: round"/>
   </g>
   <g id="line2d_6">
    <path d="M 485.136 312.28 
L 479.136 312.28 
" clip-path="url(#pb93808845f)" style="fill: none; stroke: #000000; stroke-width: 2; stroke-linecap: round"/>
   </g>
   <g id="patch_4">
    <path d="M 485.136 307.78 
L 494.136 312.28 
L 485.136 316.78 
z
" clip-path="url(#pb93808845f)"/>
   </g>
   <g id="line2d_7">
    <path d="M 476.136 309.28 
L 476.136 285.28 
" clip-path="url(#pb93808845f)" style="fill: none; stroke: #000000; stroke-width: 2; stroke-linecap: round"/>
   </g>
   <g id="line2d_8">
    <path d="M 461.136 297.28 
L 476.136 297.28 
" clip-path="url(#pb93808845f)" style="fill: none; stroke: #000000; stroke-width: 2; stroke-linecap: round"/>
   </g>
   <g id="line2d_9">
    <path d="M 494.136 327.28 
L 494.136 336.28 
L 494.136 345.28 
" clip-path="url(#pb93808845f)" style="fill: none; stroke: #000000; stroke-width: 2; stroke-linecap: round"/>
   </g>
   <g id="line2d_10">
    <path d="M 494.136 345.28 
L 539.136 345.28 
L 584.136 345.28 
" clip-path="url(#pb93808845f)" style="fill: none; stroke: #000000; stroke-width: 2; stroke-linecap: round"/>
   </g>
   <g id="line2d_11">
    <path d="M 584.136 345.28 
L 584.136 354.28 
L 584.136 363.28 
" clip-path="url(#pb93808845f)" style="fill: none; stroke: #000000; stroke-width: 2; stroke-linecap: round"/>
   </g>
   <g id="line2d_12">
    <path d="M 584.136 423.28 
L 584.136 408.28 
L 569.136 408.28 
L 569.136 378.28 
L 584.136 378.28 
L 584.136 363.28 
" clip-path="url(#pb93808845f)" style="fill: none; stroke: #000000; stroke-width: 2; stroke-linecap: round"/>
   </g>
   <g id="line2d_13">
    <path d="M 575.136 408.28 
L 569.136 408.28 
" clip-path="url(#pb93808845f)" style="fill: none; stroke: #000000; stroke-width: 2; stroke-linecap: round"/>
   </g>
   <g id="patch_5">
    <path d="M 575.136 403.78 
L 584.136 408.28 
L 575.136 412.78 
z
" clip-path="url(#pb93808845f)"/>
   </g>
   <g id="line2d_14">
    <path d="M 566.136 405.28 
L 566.136 381.28 
" clip-path="url(#pb93808845f)" style="fill: none; stroke: #000000; stroke-width: 2; stroke-linecap: round"/>
   </g>
   <g id="line2d_15">
    <path d="M 551.136 393.28 
L 566.136 393.28 
" clip-path="url(#pb93808845f)" style="fill: none; stroke: #000000; stroke-width: 2; stroke-linecap: round"/>
   </g>
   <g id="line2d_16">
    <path d="M 584.136 423.28 
L 584.136 437.68 
L 575.136 437.68 
L 593.136 437.68 
M 577.836 442 
L 590.436 442 
M 582.336 446.32 
L 585.936 446.32 
" clip-path="url(#pb93808845f)" style="fill: none; stroke: #000000; stroke-width: 2; stroke-linecap: round"/>
   </g>
   <g id="line2d_17">
    <path d="M 551.136 393.28 
L 389.136 393.28 
L 227.136 393.28 
" clip-path="url(#pb93808845f)" style="fill: none; stroke: #000000; stroke-width: 2; stroke-linecap: round"/>
   </g>
   <g id="line2d_18">
    <path d="M 260.136 423.28 
L 260.136 408.28 
L 245.136 408.28 
L 245.136 378.28 
L 260.136 378.28 
L 260.136 363.28 
" clip-path="url(#pb93808845f)" style="fill: none; stroke: #000000; stroke-width: 2; stroke-linecap: round"/>
   </g>
   <g id="line2d_19">
    <path d="M 251.136 408.28 
L 245.136 408.28 
" clip-path="url(#pb93808845f)" style="fill: none; stroke: #000000; stroke-width: 2; stroke-linecap: round"/>
   </g>
   <g id="patch_6">
    <path d="M 251.136 403.78 
L 260.136 408.28 
L 251.136 412.78 
z
" clip-path="url(#pb93808845f)"/>
   </g>
   <g id="line2d_20">
    <path d="M 242.136 405.28 
L 242.136 381.28 
" clip-path="url(#pb93808845f)" style="fill: none; stroke: #000000; stroke-width: 2; stroke-linecap: round"/>
   </g>
   <g id="line2d_21">
    <path d="M 227.136 393.28 
L 242.136 393.28 
" clip-path="url(#pb93808845f)" style="fill: none; stroke: #000000; stroke-width: 2; stroke-linecap: round"/>
   </g>
   <g id="line2d_22">
    <path d="M 260.136 423.28 
L 260.136 437.68 
L 251.136 437.68 
L 269.136 437.68 
M 253.836 442 
L 266.436 442 
M 258.336 446.32 
L 261.936 446.32 
" clip-path="url(#pb93808845f)" style="fill: none; stroke: #000000; stroke-width: 2; stroke-linecap: round"/>
   </g>
   <g id="line2d_23">
    <path d="M 227.136 393.28 
L 200.136 393.28 
L 173.136 393.28 
" clip-path="url(#pb93808845f)" style="fill: none; stroke: #000000; stroke-width: 2; stroke-linecap: round"/>
   </g>
   <g id="line2d_24">
    <path d="M 140.136 363.28 
L 140.136 378.28 
L 155.136 378.28 
L 155.136 408.28 
L 140.136 408.28 
L 140.136 423.28 
" clip-path="url(#pb93808845f)" style="fill: none; stroke: #000000; stroke-width: 2; stroke-linecap: round"/>
   </g>
   <g id="line2d_25">
    <path d="M 155.136 408.28 
L 149.136 408.28 
" clip-path="url(#pb93808845f)" style="fill: none; stroke: #000000; stroke-width: 2; stroke-linecap: round"/>
   </g>
   <g id="patch_7">
    <path d="M 149.136 412.78 
L 140.136 408.28 
L 149.136 403.78 
z
" clip-path="url(#pb93808845f)"/>
   </g>
   <g id="line2d_26">
    <path d="M 158.136 381.28 
L 158.136 405.28 
" clip-path="url(#pb93808845f)" style="fill: none; stroke: #000000; stroke-width: 2; stroke-linecap: round"/>
   </g>
   <g id="line2d_27">
    <path d="M 158.136 393.28 
L 173.136 393.28 
" clip-path="url(#pb93808845f)" style="fill: none; stroke: #000000; stroke-width: 2; stroke-linecap: round"/>
   </g>
   <g id="line2d_28">
    <path d="M 140.136 423.28 
L 140.136 437.68 
L 131.136 437.68 
L 149.136 437.68 
M 133.836 442 
L 146.436 442 
M 138.336 446.32 
L 141.936 446.32 
" clip-path="url(#pb93808845f)" style="fill: none; stroke: #000000; stroke-width: 2; stroke-linecap: round"/>
   </g>
   <g id="line2d_29">
    <path d="M 140.136 363.28 
L 140.136 354.28 
L 140.136 345.28 
" clip-path="url(#pb93808845f)" style="fill: none; stroke: #000000; stroke-width: 2; stroke-linecap: round"/>
   </g>
   <g id="line2d_30">
    <path d="M 140.136 345.28 
L 140.136 228.28 
L 140.136 111.28 
" clip-path="url(#pb93808845f)" style="fill: none; stroke: #000000; stroke-width: 2; stroke-linecap: round"/>
   </g>
   <g id="line2d_31">
    <path d="M 140.136 111.28 
L 140.136 93.28 
L 140.136 93.28 
M 140.136 57.28 
L 140.136 57.28 
L 140.136 39.28 
" clip-path="url(#pb93808845f)" style="fill: none; stroke: #000000; stroke-width: 2; stroke-linecap: round"/>
   </g>
   <g id="line2d_32">
    <path d="M 140.136 75.28 
L 140.136 66.28 
" clip-path="url(#pb93808845f)" style="fill: none; stroke: #000000; stroke-width: 2; stroke-linecap: round"/>
   </g>
   <g id="patch_8">
    <path d="M 142.836 75.28 
L 140.136 84.28 
L 137.436 75.28 
z
" clip-path="url(#pb93808845f)"/>
   </g>
   <g id="line2d_33">
    <path d="M 140.136 345.28 
L 167.136 345.28 
L 194.136 345.28 
" clip-path="url(#pb93808845f)" style="fill: none; stroke: #000000; stroke-width: 2; stroke-linecap: round"/>
   </g>
   <g id="line2d_34">
    <path d="M 194.136 345.28 
L 194.136 369.28 
L 194.136 393.28 
" clip-path="url(#pb93808845f)" style="fill: none; stroke: #000000; stroke-width: 2; stroke-linecap: round"/>
   </g>
   <g id="line2d_35">
    <path d="M 584.136 345.28 
L 629.136 345.28 
L 674.136 345.28 
" clip-path="url(#pb93808845f)" style="fill: none; stroke: #000000; stroke-width: 2; stroke-linecap: round"/>
   </g>
   <g id="line2d_36">
    <path d="M 674.136 345.28 
L 674.136 336.28 
L 674.136 327.28 
" clip-path="url(#pb93808845f)" style="fill: none; stroke: #000000; stroke-width: 2; stroke-linecap: round"/>
   </g>
   <g id="line2d_37">
    <path d="M 674.136 267.28 
L 674.136 282.28 
L 689.136 282.28 
L 689.136 312.28 
L 674.136 312.28 
L 674.136 327.28 
" clip-path="url(#pb93808845f)" style="fill: none; stroke: #000000; stroke-width: 2; stroke-linecap: round"/>
   </g>
   <g id="line2d_38">
    <path d="M 689.136 312.28 
L 683.136 312.28 
" clip-path="url(#pb93808845f)" style="fill: none; stroke: #000000; stroke-width: 2; stroke-linecap: round"/>
   </g>
   <g id="patch_9">
    <path d="M 683.136 316.78 
L 674.136 312.28 
L 683.136 307.78 
z
" clip-path="url(#pb93808845f)"/>
   </g>
   <g id="line2d_39">
    <path d="M 692.136 285.28 
L 692.136 309.28 
" clip-path="url(#pb93808845f)" style="fill: none; stroke: #000000; stroke-width: 2; stroke-linecap: round"/>
   </g>
   <g id="line2d_40">
    <path d="M 692.136 297.28 
L 707.136 297.28 
" clip-path="url(#pb93808845f)" style="fill: none; stroke: #000000; stroke-width: 2; stroke-linecap: round"/>
   </g>
   <g id="line2d_41">
    <path d="M 674.136 267.28 
L 674.136 252.28 
L 659.136 252.28 
L 659.136 222.28 
L 674.136 222.28 
L 674.136 207.28 
" clip-path="url(#pb93808845f)" style="fill: none; stroke: #000000; stroke-width: 2; stroke-linecap: round"/>
   </g>
   <g id="line2d_42">
    <path d="M 665.136 252.28 
L 659.136 252.28 
" clip-path="url(#pb93808845f)" style="fill: none; stroke: #000000; stroke-width: 2; stroke-linecap: round"/>
   </g>
   <g id="patch_10">
    <path d="M 665.136 247.78 
L 674.136 252.28 
L 665.136 256.78 
z
" clip-path="url(#pb93808845f)"/>
   </g>
   <g id="line2d_43">
    <path d="M 656.136 249.28 
L 656.136 225.28 
" clip-path="url(#pb93808845f)" style="fill: none; stroke: #000000; stroke-width: 2; stroke-linecap: round"/>
   </g>
   <g id="line2d_44">
    <path d="M 641.136 237.28 
L 656.136 237.28 
" clip-path="url(#pb93808845f)" style="fill: none; stroke: #000000; stroke-width: 2; stroke-linecap: round"/>
   </g>
   <g id="line2d_45">
    <path d="M 461.136 297.28 
L 452.136 297.28 
L 443.136 297.28 
" clip-path="url(#pb93808845f)" style="fill: none; stroke: #000000; stroke-width: 2; stroke-linecap: round"/>
   </g>
   <g id="line2d_46">
    <path d="M 707.136 297.28 
L 716.136 297.28 
L 725.136 297.28 
" clip-path="url(#pb93808845f)" style="fill: none; stroke: #000000; stroke-width: 2; stroke-linecap: round"/>
   </g>
   <g id="line2d_47">
    <path d="M 494.136 207.28 
L 494.136 189.28 
L 494.136 171.28 
" clip-path="url(#pb93808845f)" style="fill: none; stroke: #000000; stroke-width: 2; stroke-linecap: round"/>
   </g>
   <g id="line2d_48">
    <path d="M 494.136 171.28 
L 494.136 162.28 
L 494.136 153.28 
" clip-path="url(#pb93808845f)" style="fill: none; stroke: #000000; stroke-width: 2; stroke-linecap: round"/>
   </g>
   <g id="line2d_49">
    <path d="M 494.136 93.28 
L 494.136 108.28 
L 509.136 108.28 
L 509.136 138.28 
L 494.136 138.28 
L 494.136 153.28 
" clip-path="url(#pb93808845f)" style="fill: none; stroke: #000000; stroke-width: 2; stroke-linecap: round"/>
   </g>
   <g id="line2d_50">
    <path d="M 494.136 108.28 
L 500.136 108.28 
" clip-path="url(#pb93808845f)" style="fill: none; stroke: #000000; stroke-width: 2; stroke-linecap: round"/>
   </g>
   <g id="patch_11">
    <path d="M 500.136 103.78 
L 509.136 108.28 
L 500.136 112.78 
z
" clip-path="url(#pb93808845f)"/>
   </g>
   <g id="line2d_51">
    <path d="M 512.136 111.28 
L 512.136 135.28 
" clip-path="url(#pb93808845f)" style="fill: none; stroke: #000000; stroke-width: 2; stroke-linecap: round"/>
   </g>
   <g id="line2d_52">
    <path d="M 512.136 123.28 
L 527.136 123.28 
" clip-path="url(#pb93808845f)" style="fill: none; stroke: #000000; stroke-width: 2; stroke-linecap: round"/>
   </g>
   <g id="line2d_53">
    <path d="M 494.136 93.28 
L 494.136 88.78 
L 494.136 84.28 
" clip-path="url(#pb93808845f)" style="fill: none; stroke: #000000; stroke-width: 2; stroke-linecap: round"/>
   </g>
   <g id="line2d_54">
    <path d="M 494.136 24.28 
L 494.136 39.28 
L 509.136 39.28 
L 509.136 69.28 
L 494.136 69.28 
L 494.136 84.28 
" clip-path="url(#pb93808845f)" style="fill: none; stroke: #000000; stroke-width: 2; stroke-linecap: round"/>
   </g>
   <g id="line2d_55">
    <path d="M 494.136 39.28 
L 500.136 39.28 
" clip-path="url(#pb93808845f)" style="fill: none; stroke: #000000; stroke-width: 2; stroke-linecap: round"/>
   </g>
   <g id="patch_12">
    <path d="M 500.136 34.78 
L 509.136 39.28 
L 500.136 43.78 
z
" clip-path="url(#pb93808845f)"/>
   </g>
   <g id="line2d_56">
    <path d="M 512.136 42.28 
L 512.136 66.28 
" clip-path="url(#pb93808845f)" style="fill: none; stroke: #000000; stroke-width: 2; stroke-linecap: round"/>
   </g>
   <g id="line2d_57">
    <path d="M 512.136 54.28 
L 527.136 54.28 
" clip-path="url(#pb93808845f)" style="fill: none; stroke: #000000; stroke-width: 2; stroke-linecap: round"/>
   </g>
   <g id="line2d_58">
    <path d="M 674.136 207.28 
L 674.136 189.28 
L 674.136 171.28 
" clip-path="url(#pb93808845f)" style="fill: none; stroke: #000000; stroke-width: 2; stroke-linecap: round"/>
   </g>
   <g id="line2d_59">
    <path d="M 674.136 171.28 
L 701.136 171.28 
L 728.136 171.28 
" clip-path="url(#pb93808845f)" style="fill: none; stroke: #000000; stroke-width: 2; stroke-linecap: round"/>
   </g>
   <g id="line2d_60">
    <path d="M 674.136 171.28 
L 674.136 162.28 
L 674.136 153.28 
" clip-path="url(#pb93808845f)" style="fill: none; stroke: #000000; stroke-width: 2; stroke-linecap: round"/>
   </g>
   <g id="line2d_61">
    <path d="M 674.136 153.28 
L 674.136 138.28 
L 659.136 138.28 
L 659.136 108.28 
L 674.136 108.28 
L 674.136 93.28 
" clip-path="url(#pb93808845f)" style="fill: none; stroke: #000000; stroke-width: 2; stroke-linecap: round"/>
   </g>
   <g id="line2d_62">
    <path d="M 668.136 108.28 
L 674.136 108.28 
" clip-path="url(#pb93808845f)" style="fill: none; stroke: #000000; stroke-width: 2; stroke-linecap: round"/>
   </g>
   <g id="patch_13">
    <path d="M 668.136 112.78 
L 659.136 108.28 
L 668.136 103.78 
z
" clip-path="url(#pb93808845f)"/>
   </g>
   <g id="line2d_63">
    <path d="M 656.136 135.28 
L 656.136 111.28 
" clip-path="url(#pb93808845f)" style="fill: none; stroke: #000000; stroke-width: 2; stroke-linecap: round"/>
   </g>
   <g id="line2d_64">
    <path d="M 641.136 123.28 
L 656.136 123.28 
" clip-path="url(#pb93808845f)" style="fill: none; stroke: #000000; stroke-width: 2; stroke-linecap: round"/>
   </g>
   <g id="line2d_65">
    <path d="M 674.136 93.28 
L 674.136 88.78 
L 674.136 84.28 
" clip-path="url(#pb93808845f)" style="fill: none; stroke: #000000; stroke-width: 2; stroke-linecap: round"/>
   </g>
   <g id="line2d_66">
    <path d="M 674.136 84.28 
L 674.136 69.28 
L 659.136 69.28 
L 659.136 39.28 
L 674.136 39.28 
L 674.136 24.28 
" clip-path="url(#pb93808845f)" style="fill: none; stroke: #000000; stroke-width: 2; stroke-linecap: round"/>
   </g>
   <g id="line2d_67">
    <path d="M 668.136 39.28 
L 674.136 39.28 
" clip-path="url(#pb93808845f)" style="fill: none; stroke: #000000; stroke-width: 2; stroke-linecap: round"/>
   </g>
   <g id="patch_14">
    <path d="M 668.136 43.78 
L 659.136 39.28 
L 668.136 34.78 
z
" clip-path="url(#pb93808845f)"/>
   </g>
   <g id="line2d_68">
    <path d="M 656.136 66.28 
L 656.136 42.28 
" clip-path="url(#pb93808845f)" style="fill: none; stroke: #000000; stroke-width: 2; stroke-linecap: round"/>
   </g>
   <g id="line2d_69">
    <path d="M 641.136 54.28 
L 656.136 54.28 
" clip-path="url(#pb93808845f)" style="fill: none; stroke: #000000; stroke-width: 2; stroke-linecap: round"/>
   </g>
   <g id="line2d_70">
    <path d="M 641.136 54.28 
L 584.136 54.28 
L 527.136 54.28 
" clip-path="url(#pb93808845f)" style="fill: none; stroke: #000000; stroke-width: 2; stroke-linecap: round"/>
   </g>
   <g id="line2d_71">
    <path d="M 494.136 171.28 
L 521.136 171.28 
L 548.136 171.28 
" clip-path="url(#pb93808845f)" style="fill: none; stroke: #000000; stroke-width: 2; stroke-linecap: round"/>
   </g>
   <g id="line2d_72">
    <path d="M 548.136 171.28 
L 548.136 112.78 
L 548.136 54.28 
" clip-path="url(#pb93808845f)" style="fill: none; stroke: #000000; stroke-width: 2; stroke-linecap: round"/>
   </g>
   <g id="line2d_73">
    <path d="M 527.136 237.28 
L 584.136 237.28 
L 641.136 237.28 
" clip-path="url(#pb93808845f)" style="fill: none; stroke: #000000; stroke-width: 2; stroke-linecap: round"/>
   </g>
   <g id="line2d_74">
    <path d="M 527.136 123.28 
L 584.136 123.28 
L 641.136 123.28 
" clip-path="url(#pb93808845f)" style="fill: none; stroke: #000000; stroke-width: 2; stroke-linecap: round"/>
   </g>
   <g id="line2d_75">
    <path d="M 140.136 39.28 
L 140.136 31.78 
L 140.136 24.28 
" clip-path="url(#pb93808845f)" style="fill: none; stroke: #000000; stroke-width: 2; stroke-linecap: round"/>
   </g>
   <g id="line2d_76">
    <path d="M 122.136 24.28 
L 407.136 24.28 
L 692.136 24.28 
" clip-path="url(#pb93808845f)" style="fill: none; stroke: #000000; stroke-width: 3; stroke-linecap: round"/>
   </g>
   <g id="line2d_77">
    <path d="M 260.136 363.28 
L 260.136 223.78 
L 260.136 84.28 
" clip-path="url(#pb93808845f)" style="fill: none; stroke: #000000; stroke-width: 2; stroke-linecap: round"/>
   </g>
   <g id="line2d_78">
    <path d="M 260.136 24.28 
L 260.136 39.28 
L 275.136 39.28 
L 275.136 69.28 
L 260.136 69.28 
L 260.136 84.28 
" clip-path="url(#pb93808845f)" style="fill: none; stroke: #000000; stroke-width: 2; stroke-linecap: round"/>
   </g>
   <g id="line2d_79">
    <path d="M 260.136 39.28 
L 266.136 39.28 
" clip-path="url(#pb93808845f)" style="fill: none; stroke: #000000; stroke-width: 2; stroke-linecap: round"/>
   </g>
   <g id="patch_15">
    <path d="M 266.136 34.78 
L 275.136 39.28 
L 266.136 43.78 
z
" clip-path="url(#pb93808845f)"/>
   </g>
   <g id="line2d_80">
    <path d="M 278.136 42.28 
L 278.136 66.28 
" clip-path="url(#pb93808845f)" style="fill: none; stroke: #000000; stroke-width: 2; stroke-linecap: round"/>
   </g>
   <g id="line2d_81">
    <path d="M 278.136 54.28 
L 293.136 54.28 
" clip-path="url(#pb93808845f)" style="fill: none; stroke: #000000; stroke-width: 2; stroke-linecap: round"/>
   </g>
   <g id="line2d_82">
    <path d="M 293.136 54.28 
L 302.136 54.28 
L 311.136 54.28 
" clip-path="url(#pb93808845f)" style="fill: none; stroke: #000000; stroke-width: 2; stroke-linecap: round"/>
   </g>
   <g id="line2d_83">
    <path d="M 311.136 54.28 
L 320.136 54.28 
L 329.136 54.28 
" clip-path="url(#pb93808845f)" style="fill: none; stroke: #000000; stroke-width: 2; stroke-linecap: round"/>
   </g>
   <g id="line2d_84">
    <path d="M 362.136 84.28 
L 362.136 69.28 
L 347.136 69.28 
L 347.136 39.28 
L 362.136 39.28 
L 362.136 24.28 
" clip-path="url(#pb93808845f)" style="fill: none; stroke: #000000; stroke-width: 2; stroke-linecap: round"/>
   </g>
   <g id="line2d_85">
    <path d="M 356.136 39.28 
L 362.136 39.28 
" clip-path="url(#pb93808845f)" style="fill: none; stroke: #000000; stroke-width: 2; stroke-linecap: round"/>
   </g>
   <g id="patch_16">
    <path d="M 356.136 43.78 
L 347.136 39.28 
L 356.136 34.78 
z
" clip-path="url(#pb93808845f)"/>
   </g>
   <g id="line2d_86">
    <path d="M 344.136 66.28 
L 344.136 42.28 
" clip-path="url(#pb93808845f)" style="fill: none; stroke: #000000; stroke-width: 2; stroke-linecap: round"/>
   </g>
   <g id="line2d_87">
    <path d="M 329.136 54.28 
L 344.136 54.28 
" clip-path="url(#pb93808845f)" style="fill: none; stroke: #000000; stroke-width: 2; stroke-linecap: round"/>
   </g>
   <g id="line2d_88">
    <path d="M 311.136 54.28 
L 311.136 88.78 
L 311.136 123.28 
" clip-path="url(#pb93808845f)" style="fill: none; stroke: #000000; stroke-width: 2; stroke-linecap: round"/>
   </g>
   <g id="line2d_89">
    <path d="M 311.136 123.28 
L 419.136 123.28 
L 527.136 123.28 
" clip-path="url(#pb93808845f)" style="fill: none; stroke: #000000; stroke-width: 2; stroke-linecap: round"/>
   </g>
   <g id="line2d_90">
    <path d="M 311.136 123.28 
L 285.636 123.28 
L 260.136 123.28 
" clip-path="url(#pb93808845f)" style="fill: none; stroke: #000000; stroke-width: 2; stroke-linecap: round"/>
   </g>
   <g id="line2d_91">
    <path d="M 362.136 84.28 
L 362.136 145.78 
L 362.136 207.28 
" clip-path="url(#pb93808845f)" style="fill: none; stroke: #000000; stroke-width: 2; stroke-linecap: round"/>
   </g>
   <g id="line2d_92">
    <path d="M 362.136 207.28 
L 362.136 222.28 
L 377.136 222.28 
L 377.136 252.28 
L 362.136 252.28 
L 362.136 267.28 
" clip-path="url(#pb93808845f)" style="fill: none; stroke: #000000; stroke-width: 2; stroke-linecap: round"/>
   </g>
   <g id="line2d_93">
    <path d="M 377.136 252.28 
L 371.136 252.28 
" clip-path="url(#pb93808845f)" style="fill: none; stroke: #000000; stroke-width: 2; stroke-linecap: round"/>
   </g>
   <g id="patch_17">
    <path d="M 371.136 256.78 
L 362.136 252.28 
L 371.136 247.78 
z
" clip-path="url(#pb93808845f)"/>
   </g>
   <g id="line2d_94">
    <path d="M 380.136 225.28 
L 380.136 249.28 
" clip-path="url(#pb93808845f)" style="fill: none; stroke: #000000; stroke-width: 2; stroke-linecap: round"/>
   </g>
   <g id="line2d_95">
    <path d="M 380.136 237.28 
L 395.136 237.28 
" clip-path="url(#pb93808845f)" style="fill: none; stroke: #000000; stroke-width: 2; stroke-linecap: round"/>
   </g>
   <g id="line2d_96">
    <path d="M 362.136 267.28 
L 362.136 306.28 
L 362.136 345.28 
" clip-path="url(#pb93808845f)" style="fill: none; stroke: #000000; stroke-width: 2; stroke-linecap: round"/>
   </g>
   <g id="line2d_97">
    <path d="M 362.136 345.28 
L 428.136 345.28 
L 494.136 345.28 
" clip-path="url(#pb93808845f)" style="fill: none; stroke: #000000; stroke-width: 2; stroke-linecap: round"/>
   </g>
   <g id="line2d_98">
    <path d="M 395.136 237.28 
L 404.136 237.28 
L 413.136 237.28 
" clip-path="url(#pb93808845f)" style="fill: none; stroke: #000000; stroke-width: 2; stroke-linecap: round"/>
   </g>
   <g id="line2d_99">
    <path d="M 413.136 237.28 
L 470.136 237.28 
L 527.136 237.28 
" clip-path="url(#pb93808845f)" style="fill: none; stroke: #000000; stroke-width: 2; stroke-linecap: round"/>
   </g>
   <g id="line2d_100">
    <path d="M 413.136 237.28 
L 413.136 213.28 
L 413.136 189.28 
" clip-path="url(#pb93808845f)" style="fill: none; stroke: #000000; stroke-width: 2; stroke-linecap: round"/>
   </g>
   <g id="line2d_101">
    <path d="M 413.136 189.28 
L 387.636 189.28 
L 362.136 189.28 
" clip-path="url(#pb93808845f)" style="fill: none; stroke: #000000; stroke-width: 2; stroke-linecap: round"/>
   </g>
   <g id="text_1">
    <!-- $M_1$ -->
    <g transform="translate(497.736 301.695) scale(0.16 -0.16)">
     <defs>
      <path id="DejaVuSans-Oblique-4d" d="M 1081 4666 
L 2028 4666 
L 2572 1522 
L 4378 4666 
L 5350 4666 
L 4441 0 
L 3828 0 
L 4622 4091 
L 2791 897 
L 2175 897 
L 1581 4103 
L 788 0 
L 172 0 
L 1081 4666 
z
" transform="scale(0.015625)"/>
      <path id="DejaVuSans-31" d="M 794 531 
L 1825 531 
L 1825 4091 
L 703 3866 
L 703 4441 
L 1819 4666 
L 2450 4666 
L 2450 531 
L 3481 531 
L 3481 0 
L 794 0 
L 794 531 
z
" transform="scale(0.015625)"/>
     </defs>
     <use xlink:href="#DejaVuSans-Oblique-4d" transform="translate(0 0.09375)"/>
     <use xlink:href="#DejaVuSans-31" transform="translate(86.279297 -16.3125) scale(0.7)"/>
    </g>
   </g>
   <g id="patch_18">
    <path d="M 584.136 347.98 
C 584.852048 347.98 585.538866 347.695511 586.045188 347.189188 
C 586.551511 346.682866 586.836 345.996048 586.836 345.28 
C 586.836 344.563952 586.551511 343.877134 586.045188 343.370812 
C 585.538866 342.864489 584.852048 342.58 584.136 342.58 
C 583.419952 342.58 582.733134 342.864489 582.226812 343.370812 
C 581.720489 343.877134 581.436 344.563952 581.436 345.28 
C 581.436 345.996048 581.720489 346.682866 582.226812 347.189188 
C 582.733134 347.695511 583.419952 347.98 584.136 347.98 
z
" clip-path="url(#pb93808845f)" style="stroke: #000000; stroke-width: 2; stroke-linejoin: miter"/>
   </g>
   <g id="text_2">
    <!-- $V_\mathrm{tail}$ -->
    <g transform="translate(526.006 335.6525) scale(0.16 -0.16)">
     <defs>
      <path id="DejaVuSans-Oblique-56" d="M 1319 0 
L 500 4666 
L 1119 4666 
L 1797 653 
L 4063 4666 
L 4750 4666 
L 2053 0 
L 1319 0 
z
" transform="scale(0.015625)"/>
      <path id="DejaVuSans-74" d="M 1172 4494 
L 1172 3500 
L 2356 3500 
L 2356 3053 
L 1172 3053 
L 1172 1153 
Q 1172 725 1289 603 
Q 1406 481 1766 481 
L 2356 481 
L 2356 0 
L 1766 0 
Q 1100 0 847 248 
Q 594 497 594 1153 
L 594 3053 
L 172 3053 
L 172 3500 
L 594 3500 
L 594 4494 
L 1172 4494 
z
" transform="scale(0.015625)"/>
      <path id="DejaVuSans-61" d="M 2194 1759 
Q 1497 1759 1228 1600 
Q 959 1441 959 1056 
Q 959 750 1161 570 
Q 1363 391 1709 391 
Q 2188 391 2477 730 
Q 2766 1069 2766 1631 
L 2766 1759 
L 2194 1759 
z
M 3341 1997 
L 3341 0 
L 2766 0 
L 2766 531 
Q 2569 213 2275 61 
Q 1981 -91 1556 -91 
Q 1019 -91 701 211 
Q 384 513 384 1019 
Q 384 1609 779 1909 
Q 1175 2209 1959 2209 
L 2766 2209 
L 2766 2266 
Q 2766 2663 2505 2880 
Q 2244 3097 1772 3097 
Q 1472 3097 1187 3025 
Q 903 2953 641 2809 
L 641 3341 
Q 956 3463 1253 3523 
Q 1550 3584 1831 3584 
Q 2591 3584 2966 3190 
Q 3341 2797 3341 1997 
z
" transform="scale(0.015625)"/>
      <path id="DejaVuSans-69" d="M 603 3500 
L 1178 3500 
L 1178 0 
L 603 0 
L 603 3500 
z
M 603 4863 
L 1178 4863 
L 1178 4134 
L 603 4134 
L 603 4863 
z
" transform="scale(0.015625)"/>
      <path id="DejaVuSans-6c" d="M 603 4863 
L 1178 4863 
L 1178 0 
L 603 0 
L 603 4863 
z
" transform="scale(0.015625)"/>
     </defs>
     <use xlink:href="#DejaVuSans-Oblique-56" transform="translate(0 0.09375)"/>
     <use xlink:href="#DejaVuSans-74" transform="translate(68.408203 -16.3125) scale(0.7)"/>
     <use xlink:href="#DejaVuSans-61" transform="translate(95.854492 -16.3125) scale(0.7)"/>
     <use xlink:href="#DejaVuSans-69" transform="translate(138.75 -16.3125) scale(0.7)"/>
     <use xlink:href="#DejaVuSans-6c" transform="translate(158.198242 -16.3125) scale(0.7)"/>
    </g>
   </g>
   <g id="text_3">
    <!-- $M_5$ -->
    <g transform="translate(587.736 397.695) scale(0.16 -0.16)">
     <defs>
      <path id="DejaVuSans-35" d="M 691 4666 
L 3169 4666 
L 3169 4134 
L 1269 4134 
L 1269 2991 
Q 1406 3038 1543 3061 
Q 1681 3084 1819 3084 
Q 2600 3084 3056 2656 
Q 3513 2228 3513 1497 
Q 3513 744 3044 326 
Q 2575 -91 1722 -91 
Q 1428 -91 1123 -41 
Q 819 9 494 109 
L 494 744 
Q 775 591 1075 516 
Q 1375 441 1709 441 
Q 2250 441 2565 725 
Q 2881 1009 2881 1497 
Q 2881 1984 2565 2268 
Q 2250 2553 1709 2553 
Q 1456 2553 1204 2497 
Q 953 2441 691 2322 
L 691 4666 
z
" transform="scale(0.015625)"/>
     </defs>
     <use xlink:href="#DejaVuSans-Oblique-4d" transform="translate(0 0.09375)"/>
     <use xlink:href="#DejaVuSans-35" transform="translate(86.279297 -16.3125) scale(0.7)"/>
    </g>
   </g>
   <g id="text_4">
    <!-- $M_6$ -->
    <g transform="translate(115.096 397.695) scale(0.16 -0.16)">
     <defs>
      <path id="DejaVuSans-36" d="M 2113 2584 
Q 1688 2584 1439 2293 
Q 1191 2003 1191 1497 
Q 1191 994 1439 701 
Q 1688 409 2113 409 
Q 2538 409 2786 701 
Q 3034 994 3034 1497 
Q 3034 2003 2786 2293 
Q 2538 2584 2113 2584 
z
M 3366 4563 
L 3366 3988 
Q 3128 4100 2886 4159 
Q 2644 4219 2406 4219 
Q 1781 4219 1451 3797 
Q 1122 3375 1075 2522 
Q 1259 2794 1537 2939 
Q 1816 3084 2150 3084 
Q 2853 3084 3261 2657 
Q 3669 2231 3669 1497 
Q 3669 778 3244 343 
Q 2819 -91 2113 -91 
Q 1303 -91 875 529 
Q 447 1150 447 2328 
Q 447 3434 972 4092 
Q 1497 4750 2381 4750 
Q 2619 4750 2861 4703 
Q 3103 4656 3366 4563 
z
" transform="scale(0.015625)"/>
     </defs>
     <use xlink:href="#DejaVuSans-Oblique-4d" transform="translate(0 0.09375)"/>
     <use xlink:href="#DejaVuSans-36" transform="translate(86.279297 -16.3125) scale(0.7)"/>
    </g>
   </g>
   <g id="patch_19">
    <path d="M 140.136 347.98 
C 140.852048 347.98 141.538866 347.695511 142.045188 347.189188 
C 142.551511 346.682866 142.836 345.996048 142.836 345.28 
C 142.836 344.563952 142.551511 343.877134 142.045188 343.370812 
C 141.538866 342.864489 140.852048 342.58 140.136 342.58 
C 139.419952 342.58 138.733134 342.864489 138.226812 343.370812 
C 137.720489 343.877134 137.436 344.563952 137.436 345.28 
C 137.436 345.996048 137.720489 346.682866 138.226812 347.189188 
C 138.733134 347.695511 139.419952 347.98 140.136 347.98 
z
" clip-path="url(#pb93808845f)" style="stroke: #000000; stroke-width: 2; stroke-linejoin: miter"/>
   </g>
   <g id="text_5">
    <!-- $I_\mathrm{bias}$ -->
    <g transform="translate(90.376 79.695) scale(0.16 -0.16)">
     <defs>
      <path id="DejaVuSans-Oblique-49" d="M 1081 4666 
L 1716 4666 
L 806 0 
L 172 0 
L 1081 4666 
z
" transform="scale(0.015625)"/>
      <path id="DejaVuSans-62" d="M 3116 1747 
Q 3116 2381 2855 2742 
Q 2594 3103 2138 3103 
Q 1681 3103 1420 2742 
Q 1159 2381 1159 1747 
Q 1159 1113 1420 752 
Q 1681 391 2138 391 
Q 2594 391 2855 752 
Q 3116 1113 3116 1747 
z
M 1159 2969 
Q 1341 3281 1617 3432 
Q 1894 3584 2278 3584 
Q 2916 3584 3314 3078 
Q 3713 2572 3713 1747 
Q 3713 922 3314 415 
Q 2916 -91 2278 -91 
Q 1894 -91 1617 61 
Q 1341 213 1159 525 
L 1159 0 
L 581 0 
L 581 4863 
L 1159 4863 
L 1159 2969 
z
" transform="scale(0.015625)"/>
      <path id="DejaVuSans-73" d="M 2834 3397 
L 2834 2853 
Q 2591 2978 2328 3040 
Q 2066 3103 1784 3103 
Q 1356 3103 1142 2972 
Q 928 2841 928 2578 
Q 928 2378 1081 2264 
Q 1234 2150 1697 2047 
L 1894 2003 
Q 2506 1872 2764 1633 
Q 3022 1394 3022 966 
Q 3022 478 2636 193 
Q 2250 -91 1575 -91 
Q 1294 -91 989 -36 
Q 684 19 347 128 
L 347 722 
Q 666 556 975 473 
Q 1284 391 1588 391 
Q 1994 391 2212 530 
Q 2431 669 2431 922 
Q 2431 1156 2273 1281 
Q 2116 1406 1581 1522 
L 1381 1569 
Q 847 1681 609 1914 
Q 372 2147 372 2553 
Q 372 3047 722 3315 
Q 1072 3584 1716 3584 
Q 2034 3584 2315 3537 
Q 2597 3491 2834 3397 
z
" transform="scale(0.015625)"/>
     </defs>
     <use xlink:href="#DejaVuSans-Oblique-49" transform="translate(0 0.09375)"/>
     <use xlink:href="#DejaVuSans-62" transform="translate(29.492188 -16.3125) scale(0.7)"/>
     <use xlink:href="#DejaVuSans-69" transform="translate(73.925781 -16.3125) scale(0.7)"/>
     <use xlink:href="#DejaVuSans-61" transform="translate(93.374023 -16.3125) scale(0.7)"/>
     <use xlink:href="#DejaVuSans-73" transform="translate(136.269531 -16.3125) scale(0.7)"/>
    </g>
   </g>
   <g id="patch_20">
    <path d="M 194.136 395.98 
C 194.852048 395.98 195.538866 395.695511 196.045188 395.189188 
C 196.551511 394.682866 196.836 393.996048 196.836 393.28 
C 196.836 392.563952 196.551511 391.877134 196.045188 391.370812 
C 195.538866 390.864489 194.852048 390.58 194.136 390.58 
C 193.419952 390.58 192.733134 390.864489 192.226812 391.370812 
C 191.720489 391.877134 191.436 392.563952 191.436 393.28 
C 191.436 393.996048 191.720489 394.682866 192.226812 395.189188 
C 192.733134 395.695511 193.419952 395.98 194.136 395.98 
z
" clip-path="url(#pb93808845f)" style="stroke: #000000; stroke-width: 2; stroke-linejoin: miter"/>
   </g>
   <g id="text_6">
    <!-- $M_2$ -->
    <g transform="translate(649.096 301.695) scale(0.16 -0.16)">
     <defs>
      <path id="DejaVuSans-32" d="M 1228 531 
L 3431 531 
L 3431 0 
L 469 0 
L 469 531 
Q 828 903 1448 1529 
Q 2069 2156 2228 2338 
Q 2531 2678 2651 2914 
Q 2772 3150 2772 3378 
Q 2772 3750 2511 3984 
Q 2250 4219 1831 4219 
Q 1534 4219 1204 4116 
Q 875 4013 500 3803 
L 500 4441 
Q 881 4594 1212 4672 
Q 1544 4750 1819 4750 
Q 2544 4750 2975 4387 
Q 3406 4025 3406 3419 
Q 3406 3131 3298 2873 
Q 3191 2616 2906 2266 
Q 2828 2175 2409 1742 
Q 1991 1309 1228 531 
z
" transform="scale(0.015625)"/>
     </defs>
     <use xlink:href="#DejaVuSans-Oblique-4d" transform="translate(0 0.09375)"/>
     <use xlink:href="#DejaVuSans-32" transform="translate(86.279297 -16.3125) scale(0.7)"/>
    </g>
   </g>
   <g id="patch_21">
    <path d="M 443.136 299.98 
C 443.852048 299.98 444.538866 299.695511 445.045188 299.189188 
C 445.551511 298.682866 445.836 297.996048 445.836 297.28 
C 445.836 296.563952 445.551511 295.877134 445.045188 295.370812 
C 444.538866 294.864489 443.852048 294.58 443.136 294.58 
C 442.419952 294.58 441.733134 294.864489 441.226812 295.370812 
C 440.720489 295.877134 440.436 296.563952 440.436 297.28 
C 440.436 297.996048 440.720489 298.682866 441.226812 299.189188 
C 441.733134 299.695511 442.419952 299.98 443.136 299.98 
z
" clip-path="url(#pb93808845f)" style="fill: #ffffff; stroke: #000000; stroke-width: 2; stroke-linejoin: miter"/>
   </g>
   <g id="text_7">
    <!-- $V_\mathrm{in,p}$ -->
    <g transform="translate(402.276 300.64) scale(0.16 -0.16)">
     <defs>
      <path id="DejaVuSans-6e" d="M 3513 2113 
L 3513 0 
L 2938 0 
L 2938 2094 
Q 2938 2591 2744 2837 
Q 2550 3084 2163 3084 
Q 1697 3084 1428 2787 
Q 1159 2491 1159 1978 
L 1159 0 
L 581 0 
L 581 3500 
L 1159 3500 
L 1159 2956 
Q 1366 3272 1645 3428 
Q 1925 3584 2291 3584 
Q 2894 3584 3203 3211 
Q 3513 2838 3513 2113 
z
" transform="scale(0.015625)"/>
      <path id="DejaVuSans-2c" d="M 750 794 
L 1409 794 
L 1409 256 
L 897 -744 
L 494 -744 
L 750 256 
L 750 794 
z
" transform="scale(0.015625)"/>
      <path id="DejaVuSans-70" d="M 1159 525 
L 1159 -1331 
L 581 -1331 
L 581 3500 
L 1159 3500 
L 1159 2969 
Q 1341 3281 1617 3432 
Q 1894 3584 2278 3584 
Q 2916 3584 3314 3078 
Q 3713 2572 3713 1747 
Q 3713 922 3314 415 
Q 2916 -91 2278 -91 
Q 1894 -91 1617 61 
Q 1341 213 1159 525 
z
M 3116 1747 
Q 3116 2381 2855 2742 
Q 2594 3103 2138 3103 
Q 1681 3103 1420 2742 
Q 1159 2381 1159 1747 
Q 1159 1113 1420 752 
Q 1681 391 2138 391 
Q 2594 391 2855 752 
Q 3116 1113 3116 1747 
z
" transform="scale(0.015625)"/>
     </defs>
     <use xlink:href="#DejaVuSans-Oblique-56" transform="translate(0 0.09375)"/>
     <use xlink:href="#DejaVuSans-69" transform="translate(68.408203 -16.3125) scale(0.7)"/>
     <use xlink:href="#DejaVuSans-6e" transform="translate(87.856445 -16.3125) scale(0.7)"/>
     <use xlink:href="#DejaVuSans-2c" transform="translate(132.22168 -16.3125) scale(0.7)"/>
     <use xlink:href="#DejaVuSans-70" transform="translate(168.110352 -16.3125) scale(0.7)"/>
    </g>
   </g>
   <g id="patch_22">
    <path d="M 725.136 299.98 
C 725.852048 299.98 726.538866 299.695511 727.045188 299.189188 
C 727.551511 298.682866 727.836 297.996048 727.836 297.28 
C 727.836 296.563952 727.551511 295.877134 727.045188 295.370812 
C 726.538866 294.864489 725.852048 294.58 725.136 294.58 
C 724.419952 294.58 723.733134 294.864489 723.226812 295.370812 
C 722.720489 295.877134 722.436 296.563952 722.436 297.28 
C 722.436 297.996048 722.720489 298.682866 723.226812 299.189188 
C 723.733134 299.695511 724.419952 299.98 725.136 299.98 
z
" clip-path="url(#pb93808845f)" style="fill: #ffffff; stroke: #000000; stroke-width: 2; stroke-linejoin: miter"/>
   </g>
   <g id="text_8">
    <!-- $V_\mathrm{in,n}$ -->
    <g transform="translate(731.436 301.12) scale(0.16 -0.16)">
     <use xlink:href="#DejaVuSans-Oblique-56" transform="translate(0 0.09375)"/>
     <use xlink:href="#DejaVuSans-69" transform="translate(68.408203 -16.3125) scale(0.7)"/>
     <use xlink:href="#DejaVuSans-6e" transform="translate(87.856445 -16.3125) scale(0.7)"/>
     <use xlink:href="#DejaVuSans-2c" transform="translate(132.22168 -16.3125) scale(0.7)"/>
     <use xlink:href="#DejaVuSans-6e" transform="translate(168.110352 -16.3125) scale(0.7)"/>
    </g>
   </g>
   <g id="patch_23">
    <path d="M 494.136 173.98 
C 494.852048 173.98 495.538866 173.695511 496.045188 173.189188 
C 496.551511 172.682866 496.836 171.996048 496.836 171.28 
C 496.836 170.563952 496.551511 169.877134 496.045188 169.370812 
C 495.538866 168.864489 494.852048 168.58 494.136 168.58 
C 493.419952 168.58 492.733134 168.864489 492.226812 169.370812 
C 491.720489 169.877134 491.436 170.563952 491.436 171.28 
C 491.436 171.996048 491.720489 172.682866 492.226812 173.189188 
C 492.733134 173.695511 493.419952 173.98 494.136 173.98 
z
" clip-path="url(#pb93808845f)" style="stroke: #000000; stroke-width: 2; stroke-linejoin: miter"/>
   </g>
   <g id="text_9">
    <!-- $M_3$ -->
    <g transform="translate(469.096 58.695) scale(0.16 -0.16)">
     <defs>
      <path id="DejaVuSans-33" d="M 2597 2516 
Q 3050 2419 3304 2112 
Q 3559 1806 3559 1356 
Q 3559 666 3084 287 
Q 2609 -91 1734 -91 
Q 1441 -91 1130 -33 
Q 819 25 488 141 
L 488 750 
Q 750 597 1062 519 
Q 1375 441 1716 441 
Q 2309 441 2620 675 
Q 2931 909 2931 1356 
Q 2931 1769 2642 2001 
Q 2353 2234 1838 2234 
L 1294 2234 
L 1294 2753 
L 1863 2753 
Q 2328 2753 2575 2939 
Q 2822 3125 2822 3475 
Q 2822 3834 2567 4026 
Q 2313 4219 1838 4219 
Q 1578 4219 1281 4162 
Q 984 4106 628 3988 
L 628 4550 
Q 988 4650 1302 4700 
Q 1616 4750 1894 4750 
Q 2613 4750 3031 4423 
Q 3450 4097 3450 3541 
Q 3450 3153 3228 2886 
Q 3006 2619 2597 2516 
z
" transform="scale(0.015625)"/>
     </defs>
     <use xlink:href="#DejaVuSans-Oblique-4d" transform="translate(0 0.09375)"/>
     <use xlink:href="#DejaVuSans-33" transform="translate(86.279297 -16.3125) scale(0.7)"/>
    </g>
   </g>
   <g id="patch_24">
    <path d="M 674.136 173.98 
C 674.852048 173.98 675.538866 173.695511 676.045188 173.189188 
C 676.551511 172.682866 676.836 171.996048 676.836 171.28 
C 676.836 170.563952 676.551511 169.877134 676.045188 169.370812 
C 675.538866 168.864489 674.852048 168.58 674.136 168.58 
C 673.419952 168.58 672.733134 168.864489 672.226812 169.370812 
C 671.720489 169.877134 671.436 170.563952 671.436 171.28 
C 671.436 171.996048 671.720489 172.682866 672.226812 173.189188 
C 672.733134 173.695511 673.419952 173.98 674.136 173.98 
z
" clip-path="url(#pb93808845f)" style="stroke: #000000; stroke-width: 2; stroke-linejoin: miter"/>
   </g>
   <g id="patch_25">
    <path d="M 728.136 173.98 
C 728.852048 173.98 729.538866 173.695511 730.045188 173.189188 
C 730.551511 172.682866 730.836 171.996048 730.836 171.28 
C 730.836 170.563952 730.551511 169.877134 730.045188 169.370812 
C 729.538866 168.864489 728.852048 168.58 728.136 168.58 
C 727.419952 168.58 726.733134 168.864489 726.226812 169.370812 
C 725.720489 169.877134 725.436 170.563952 725.436 171.28 
C 725.436 171.996048 725.720489 172.682866 726.226812 173.189188 
C 726.733134 173.695511 727.419952 173.98 728.136 173.98 
z
" clip-path="url(#pb93808845f)" style="fill: #ffffff; stroke: #000000; stroke-width: 2; stroke-linejoin: miter"/>
   </g>
   <g id="text_10">
    <!-- $V_\mathrm{out}$ -->
    <g transform="translate(734.436 175.695) scale(0.16 -0.16)">
     <defs>
      <path id="DejaVuSans-6f" d="M 1959 3097 
Q 1497 3097 1228 2736 
Q 959 2375 959 1747 
Q 959 1119 1226 758 
Q 1494 397 1959 397 
Q 2419 397 2687 759 
Q 2956 1122 2956 1747 
Q 2956 2369 2687 2733 
Q 2419 3097 1959 3097 
z
M 1959 3584 
Q 2709 3584 3137 3096 
Q 3566 2609 3566 1747 
Q 3566 888 3137 398 
Q 2709 -91 1959 -91 
Q 1206 -91 779 398 
Q 353 888 353 1747 
Q 353 2609 779 3096 
Q 1206 3584 1959 3584 
z
" transform="scale(0.015625)"/>
      <path id="DejaVuSans-75" d="M 544 1381 
L 544 3500 
L 1119 3500 
L 1119 1403 
Q 1119 906 1312 657 
Q 1506 409 1894 409 
Q 2359 409 2629 706 
Q 2900 1003 2900 1516 
L 2900 3500 
L 3475 3500 
L 3475 0 
L 2900 0 
L 2900 538 
Q 2691 219 2414 64 
Q 2138 -91 1772 -91 
Q 1169 -91 856 284 
Q 544 659 544 1381 
z
M 1991 3584 
L 1991 3584 
z
" transform="scale(0.015625)"/>
     </defs>
     <use xlink:href="#DejaVuSans-Oblique-56" transform="translate(0 0.09375)"/>
     <use xlink:href="#DejaVuSans-6f" transform="translate(68.408203 -16.3125) scale(0.7)"/>
     <use xlink:href="#DejaVuSans-75" transform="translate(111.235352 -16.3125) scale(0.7)"/>
     <use xlink:href="#DejaVuSans-74" transform="translate(155.600586 -16.3125) scale(0.7)"/>
    </g>
   </g>
   <g id="text_11">
    <!-- $M_4$ -->
    <g transform="translate(677.736 58.695) scale(0.16 -0.16)">
     <defs>
      <path id="DejaVuSans-34" d="M 2419 4116 
L 825 1625 
L 2419 1625 
L 2419 4116 
z
M 2253 4666 
L 3047 4666 
L 3047 1625 
L 3713 1625 
L 3713 1100 
L 3047 1100 
L 3047 0 
L 2419 0 
L 2419 1100 
L 313 1100 
L 313 1709 
L 2253 4666 
z
" transform="scale(0.015625)"/>
     </defs>
     <use xlink:href="#DejaVuSans-Oblique-4d" transform="translate(0 0.09375)"/>
     <use xlink:href="#DejaVuSans-34" transform="translate(86.279297 -16.3125) scale(0.7)"/>
    </g>
   </g>
   <g id="patch_26">
    <path d="M 548.136 56.98 
C 548.852048 56.98 549.538866 56.695511 550.045188 56.189188 
C 550.551511 55.682866 550.836 54.996048 550.836 54.28 
C 550.836 53.563952 550.551511 52.877134 550.045188 52.370812 
C 549.538866 51.864489 548.852048 51.58 548.136 51.58 
C 547.419952 51.58 546.733134 51.864489 546.226812 52.370812 
C 545.720489 52.877134 545.436 53.563952 545.436 54.28 
C 545.436 54.996048 545.720489 55.682866 546.226812 56.189188 
C 546.733134 56.695511 547.419952 56.98 548.136 56.98 
z
" clip-path="url(#pb93808845f)" style="stroke: #000000; stroke-width: 2; stroke-linejoin: miter"/>
   </g>
   <g id="text_12">
    <!-- $V_\mathrm{bias1}$ -->
    <g transform="translate(563.416 230.3525) scale(0.16 -0.16)">
     <use xlink:href="#DejaVuSans-Oblique-56" transform="translate(0 0.09375)"/>
     <use xlink:href="#DejaVuSans-62" transform="translate(68.408203 -16.3125) scale(0.7)"/>
     <use xlink:href="#DejaVuSans-69" transform="translate(112.841797 -16.3125) scale(0.7)"/>
     <use xlink:href="#DejaVuSans-61" transform="translate(132.290039 -16.3125) scale(0.7)"/>
     <use xlink:href="#DejaVuSans-73" transform="translate(175.185547 -16.3125) scale(0.7)"/>
     <use xlink:href="#DejaVuSans-31" transform="translate(211.655273 -16.3125) scale(0.7)"/>
    </g>
   </g>
   <g id="text_13">
    <!-- $V_\mathrm{bias2}$ -->
    <g transform="translate(563.416 116.3525) scale(0.16 -0.16)">
     <use xlink:href="#DejaVuSans-Oblique-56" transform="translate(0 0.09375)"/>
     <use xlink:href="#DejaVuSans-62" transform="translate(68.408203 -16.3125) scale(0.7)"/>
     <use xlink:href="#DejaVuSans-69" transform="translate(112.841797 -16.3125) scale(0.7)"/>
     <use xlink:href="#DejaVuSans-61" transform="translate(132.290039 -16.3125) scale(0.7)"/>
     <use xlink:href="#DejaVuSans-73" transform="translate(175.185547 -16.3125) scale(0.7)"/>
     <use xlink:href="#DejaVuSans-32" transform="translate(211.655273 -16.3125) scale(0.7)"/>
    </g>
   </g>
   <g id="text_14">
    <!-- $V_\mathrm{DD}$ -->
    <g transform="translate(392.816 17.3525) scale(0.16 -0.16)">
     <defs>
      <path id="DejaVuSans-44" d="M 1259 4147 
L 1259 519 
L 2022 519 
Q 2988 519 3436 956 
Q 3884 1394 3884 2338 
Q 3884 3275 3436 3711 
Q 2988 4147 2022 4147 
L 1259 4147 
z
M 628 4666 
L 1925 4666 
Q 3281 4666 3915 4102 
Q 4550 3538 4550 2338 
Q 4550 1131 3912 565 
Q 3275 0 1925 0 
L 628 0 
L 628 4666 
z
" transform="scale(0.015625)"/>
     </defs>
     <use xlink:href="#DejaVuSans-Oblique-56" transform="translate(0 0.09375)"/>
     <use xlink:href="#DejaVuSans-44" transform="translate(68.408203 -16.3125) scale(0.7)"/>
     <use xlink:href="#DejaVuSans-44" transform="translate(122.30957 -16.3125) scale(0.7)"/>
    </g>
   </g>
   <g id="text_15">
    <!-- $M_8$ -->
    <g transform="translate(235.096 58.695) scale(0.16 -0.16)">
     <defs>
      <path id="DejaVuSans-38" d="M 2034 2216 
Q 1584 2216 1326 1975 
Q 1069 1734 1069 1313 
Q 1069 891 1326 650 
Q 1584 409 2034 409 
Q 2484 409 2743 651 
Q 3003 894 3003 1313 
Q 3003 1734 2745 1975 
Q 2488 2216 2034 2216 
z
M 1403 2484 
Q 997 2584 770 2862 
Q 544 3141 544 3541 
Q 544 4100 942 4425 
Q 1341 4750 2034 4750 
Q 2731 4750 3128 4425 
Q 3525 4100 3525 3541 
Q 3525 3141 3298 2862 
Q 3072 2584 2669 2484 
Q 3125 2378 3379 2068 
Q 3634 1759 3634 1313 
Q 3634 634 3220 271 
Q 2806 -91 2034 -91 
Q 1263 -91 848 271 
Q 434 634 434 1313 
Q 434 1759 690 2068 
Q 947 2378 1403 2484 
z
M 1172 3481 
Q 1172 3119 1398 2916 
Q 1625 2713 2034 2713 
Q 2441 2713 2670 2916 
Q 2900 3119 2900 3481 
Q 2900 3844 2670 4047 
Q 2441 4250 2034 4250 
Q 1625 4250 1398 4047 
Q 1172 3844 1172 3481 
z
" transform="scale(0.015625)"/>
     </defs>
     <use xlink:href="#DejaVuSans-Oblique-4d" transform="translate(0 0.09375)"/>
     <use xlink:href="#DejaVuSans-38" transform="translate(86.279297 -16.3125) scale(0.7)"/>
    </g>
   </g>
   <g id="patch_27">
    <path d="M 311.136 56.98 
C 311.852048 56.98 312.538866 56.695511 313.045188 56.189188 
C 313.551511 55.682866 313.836 54.996048 313.836 54.28 
C 313.836 53.563952 313.551511 52.877134 313.045188 52.370812 
C 312.538866 51.864489 311.852048 51.58 311.136 51.58 
C 310.419952 51.58 309.733134 51.864489 309.226812 52.370812 
C 308.720489 52.877134 308.436 53.563952 308.436 54.28 
C 308.436 54.996048 308.720489 55.682866 309.226812 56.189188 
C 309.733134 56.695511 310.419952 56.98 311.136 56.98 
z
" clip-path="url(#pb93808845f)" style="stroke: #000000; stroke-width: 2; stroke-linejoin: miter"/>
   </g>
   <g id="text_16">
    <!-- $M_9$ -->
    <g transform="translate(365.736 58.695) scale(0.16 -0.16)">
     <defs>
      <path id="DejaVuSans-39" d="M 703 97 
L 703 672 
Q 941 559 1184 500 
Q 1428 441 1663 441 
Q 2288 441 2617 861 
Q 2947 1281 2994 2138 
Q 2813 1869 2534 1725 
Q 2256 1581 1919 1581 
Q 1219 1581 811 2004 
Q 403 2428 403 3163 
Q 403 3881 828 4315 
Q 1253 4750 1959 4750 
Q 2769 4750 3195 4129 
Q 3622 3509 3622 2328 
Q 3622 1225 3098 567 
Q 2575 -91 1691 -91 
Q 1453 -91 1209 -44 
Q 966 3 703 97 
z
M 1959 2075 
Q 2384 2075 2632 2365 
Q 2881 2656 2881 3163 
Q 2881 3666 2632 3958 
Q 2384 4250 1959 4250 
Q 1534 4250 1286 3958 
Q 1038 3666 1038 3163 
Q 1038 2656 1286 2365 
Q 1534 2075 1959 2075 
z
" transform="scale(0.015625)"/>
     </defs>
     <use xlink:href="#DejaVuSans-Oblique-4d" transform="translate(0 0.09375)"/>
     <use xlink:href="#DejaVuSans-39" transform="translate(86.279297 -16.3125) scale(0.7)"/>
    </g>
   </g>
   <g id="patch_28">
    <path d="M 311.136 125.98 
C 311.852048 125.98 312.538866 125.695511 313.045188 125.189188 
C 313.551511 124.682866 313.836 123.996048 313.836 123.28 
C 313.836 122.563952 313.551511 121.877134 313.045188 121.370812 
C 312.538866 120.864489 311.852048 120.58 311.136 120.58 
C 310.419952 120.58 309.733134 120.864489 309.226812 121.370812 
C 308.720489 121.877134 308.436 122.563952 308.436 123.28 
C 308.436 123.996048 308.720489 124.682866 309.226812 125.189188 
C 309.733134 125.695511 310.419952 125.98 311.136 125.98 
z
" clip-path="url(#pb93808845f)" style="stroke: #000000; stroke-width: 2; stroke-linejoin: miter"/>
   </g>
   <g id="patch_29">
    <path d="M 260.136 125.98 
C 260.852048 125.98 261.538866 125.695511 262.045188 125.189188 
C 262.551511 124.682866 262.836 123.996048 262.836 123.28 
C 262.836 122.563952 262.551511 121.877134 262.045188 121.370812 
C 261.538866 120.864489 260.852048 120.58 260.136 120.58 
C 259.419952 120.58 258.733134 120.864489 258.226812 121.370812 
C 257.720489 121.877134 257.436 122.563952 257.436 123.28 
C 257.436 123.996048 257.720489 124.682866 258.226812 125.189188 
C 258.733134 125.695511 259.419952 125.98 260.136 125.98 
z
" clip-path="url(#pb93808845f)" style="stroke: #000000; stroke-width: 2; stroke-linejoin: miter"/>
   </g>
   <g id="text_17">
    <!-- $M_{10}$ -->
    <g transform="translate(329.896 241.695) scale(0.16 -0.16)">
     <defs>
      <path id="DejaVuSans-30" d="M 2034 4250 
Q 1547 4250 1301 3770 
Q 1056 3291 1056 2328 
Q 1056 1369 1301 889 
Q 1547 409 2034 409 
Q 2525 409 2770 889 
Q 3016 1369 3016 2328 
Q 3016 3291 2770 3770 
Q 2525 4250 2034 4250 
z
M 2034 4750 
Q 2819 4750 3233 4129 
Q 3647 3509 3647 2328 
Q 3647 1150 3233 529 
Q 2819 -91 2034 -91 
Q 1250 -91 836 529 
Q 422 1150 422 2328 
Q 422 3509 836 4129 
Q 1250 4750 2034 4750 
z
" transform="scale(0.015625)"/>
     </defs>
     <use xlink:href="#DejaVuSans-Oblique-4d" transform="translate(0 0.09375)"/>
     <use xlink:href="#DejaVuSans-31" transform="translate(86.279297 -16.3125) scale(0.7)"/>
     <use xlink:href="#DejaVuSans-30" transform="translate(130.81543 -16.3125) scale(0.7)"/>
    </g>
   </g>
   <g id="patch_30">
    <path d="M 494.136 347.98 
C 494.852048 347.98 495.538866 347.695511 496.045188 347.189188 
C 496.551511 346.682866 496.836 345.996048 496.836 345.28 
C 496.836 344.563952 496.551511 343.877134 496.045188 343.370812 
C 495.538866 342.864489 494.852048 342.58 494.136 342.58 
C 493.419952 342.58 492.733134 342.864489 492.226812 343.370812 
C 491.720489 343.877134 491.436 344.563952 491.436 345.28 
C 491.436 345.996048 491.720489 346.682866 492.226812 347.189188 
C 492.733134 347.695511 493.419952 347.98 494.136 347.98 
z
" clip-path="url(#pb93808845f)" style="stroke: #000000; stroke-width: 2; stroke-linejoin: miter"/>
   </g>
   <g id="patch_31">
    <path d="M 413.136 239.98 
C 413.852048 239.98 414.538866 239.695511 415.045188 239.189188 
C 415.551511 238.682866 415.836 237.996048 415.836 237.28 
C 415.836 236.563952 415.551511 235.877134 415.045188 235.370812 
C 414.538866 234.864489 413.852048 234.58 413.136 234.58 
C 412.419952 234.58 411.733134 234.864489 411.226812 235.370812 
C 410.720489 235.877134 410.436 236.563952 410.436 237.28 
C 410.436 237.996048 410.720489 238.682866 411.226812 239.189188 
C 411.733134 239.695511 412.419952 239.98 413.136 239.98 
z
" clip-path="url(#pb93808845f)" style="stroke: #000000; stroke-width: 2; stroke-linejoin: miter"/>
   </g>
   <g id="patch_32">
    <path d="M 362.136 191.98 
C 362.852048 191.98 363.538866 191.695511 364.045188 191.189188 
C 364.551511 190.682866 364.836 189.996048 364.836 189.28 
C 364.836 188.563952 364.551511 187.877134 364.045188 187.370812 
C 363.538866 186.864489 362.852048 186.58 362.136 186.58 
C 361.419952 186.58 360.733134 186.864489 360.226812 187.370812 
C 359.720489 187.877134 359.436 188.563952 359.436 189.28 
C 359.436 189.996048 359.720489 190.682866 360.226812 191.189188 
C 360.733134 191.695511 361.419952 191.98 362.136 191.98 
z
" clip-path="url(#pb93808845f)" style="stroke: #000000; stroke-width: 2; stroke-linejoin: miter"/>
   </g>
  </g>
 </g>
 <defs>
  <clipPath id="pb93808845f">
   <rect x="0" y="-0" width="852.564" height="451"/>
  </clipPath>
 </defs>
</svg>
