<?xml version="1.0" encoding="utf-8" standalone="no"?>
<!DOCTYPE svg PUBLIC "-//W3C//DTD SVG 1.1//EN"
  "http://www.w3.org/Graphics/SVG/1.1/DTD/svg11.dtd">
<svg xmlns:xlink="http://www.w3.org/1999/xlink" width="676.248pt" height="449pt" viewBox="0 0 676.248 449" xmlns="http://www.w3.org/2000/svg" version="1.1">
 <metadata>
  <rdf:RDF xmlns:dc="http://purl.org/dc/elements/1.1/" xmlns:cc="http://creativecommons.org/ns#" xmlns:rdf="http://www.w3.org/1999/02/22-rdf-syntax-ns#">
   <cc:Work>
    <dc:type rdf:resource="http://purl.org/dc/dcmitype/StillImage"/>
    <dc:date>2026-02-07T12:13:34.063436</dc:date>
    <dc:format>image/svg+xml</dc:format>
    <dc:creator>
     <cc:Agent>
      <dc:title>Matplotlib v3.10.7, https://matplotlib.org/</dc:title>
     </cc:Agent>
    </dc:creator>
   </cc:Work>
  </rdf:RDF>
 </metadata>
 <defs>
  <style type="text/css">*{stroke-linejoin: round; stroke-linecap: butt}</style>
 </defs>
 <g id="figure_1">
  <g id="patch_1">
   <path d="M 0 449 
L 676.248 449 
L 676.248 0 
L 0 0 
L 0 449 
z
" style="fill: none"/>
  </g>
  <g id="axes_1">
   <g id="patch_2">
    <path d="M 122.88 91.28 
C 127.653656 91.28 132.232438 89.383406 135.607922 86.007922 
C 138.983406 82.632438 140.88 78.053656 140.88 73.28 
C 140.88 68.506344 138.983406 63.927562 135.607922 60.552078 
C 132.232438 57.176594 127.653656 55.28 122.88 55.28 
C 118.106344 55.28 113.527562 57.176594 110.152078 60.552078 
C 106.776594 63.927562 104.88 68.506344 104.88 73.28 
C 104.88 78.053656 106.776594 82.632438 110.152078 86.007922 
C 113.527562 89.383406 118.106344 91.28 122.88 91.28 
L 122.88 91.28 
z
" clip-path="url(#pa72f7fe40b)" style="fill: none; stroke: #000000; stroke-width: 2; stroke-linejoin: miter"/>
   </g>
   <g id="patch_3">
    <path d="M 404.88 307.28 
C 409.653656 307.28 414.232438 305.383406 417.607922 302.007922 
C 420.983406 298.632438 422.88 294.053656 422.88 289.28 
C 422.88 284.506344 420.983406 279.927562 417.607922 276.552078 
C 414.232438 273.176594 409.653656 271.28 404.88 271.28 
C 400.106344 271.28 395.527562 273.176594 392.152078 276.552078 
C 388.776594 279.927562 386.88 284.506344 386.88 289.28 
C 386.88 294.053656 388.776594 298.632438 392.152078 302.007922 
C 395.527562 305.383406 400.106344 307.28 404.88 307.28 
L 404.88 307.28 
z
" clip-path="url(#pa72f7fe40b)" style="fill: none; stroke: #000000; stroke-width: 2; stroke-linejoin: miter"/>
   </g>
   <g id="patch_4">
    <path d="M 404.88 103.28 
C 409.653656 103.28 414.232438 101.383406 417.607922 98.007922 
C 420.983406 94.632438 422.88 90.053656 422.88 85.28 
C 422.88 80.506344 420.983406 75.927562 417.607922 72.552078 
C 414.232438 69.176594 409.653656 67.28 404.88 67.28 
C 400.106344 67.28 395.527562 69.176594 392.152078 72.552078 
C 388.776594 75.927562 386.88 80.506344 386.88 85.28 
C 386.88 90.053656 388.776594 94.632438 392.152078 98.007922 
C 395.527562 101.383406 400.106344 103.28 404.88 103.28 
L 404.88 103.28 
z
" clip-path="url(#pa72f7fe40b)" style="fill: none; stroke: #000000; stroke-width: 2; stroke-linejoin: miter"/>
   </g>
   <g id="line2d_1">
    <path d="M 296.88 205.28 
L 296.88 220.28 
L 311.88 220.28 
L 311.88 250.28 
L 296.88 250.28 
L 296.88 265.28 
" clip-path="url(#pa72f7fe40b)" style="fill: none; stroke: #000000; stroke-width: 2; stroke-linecap: round"/>
   </g>
   <g id="line2d_2">
    <path d="M 311.88 250.28 
L 305.88 250.28 
" clip-path="url(#pa72f7fe40b)" style="fill: none; stroke: #000000; stroke-width: 2; stroke-linecap: round"/>
   </g>
   <g id="patch_5">
    <path d="M 305.88 254.78 
L 296.88 250.28 
L 305.88 245.78 
z
" clip-path="url(#pa72f7fe40b)"/>
   </g>
   <g id="line2d_3">
    <path d="M 314.88 223.28 
L 314.88 247.28 
" clip-path="url(#pa72f7fe40b)" style="fill: none; stroke: #000000; stroke-width: 2; stroke-linecap: round"/>
   </g>
   <g id="line2d_4">
    <path d="M 314.88 235.28 
L 329.88 235.28 
" clip-path="url(#pa72f7fe40b)" style="fill: none; stroke: #000000; stroke-width: 2; stroke-linecap: round"/>
   </g>
   <g id="line2d_5">
    <path d="M 296.88 325.28 
L 296.88 310.28 
L 281.88 310.28 
L 281.88 280.28 
L 296.88 280.28 
L 296.88 265.28 
" clip-path="url(#pa72f7fe40b)" style="fill: none; stroke: #000000; stroke-width: 2; stroke-linecap: round"/>
   </g>
   <g id="line2d_6">
    <path d="M 287.88 310.28 
L 281.88 310.28 
" clip-path="url(#pa72f7fe40b)" style="fill: none; stroke: #000000; stroke-width: 2; stroke-linecap: round"/>
   </g>
   <g id="patch_6">
    <path d="M 287.88 305.78 
L 296.88 310.28 
L 287.88 314.78 
z
" clip-path="url(#pa72f7fe40b)"/>
   </g>
   <g id="line2d_7">
    <path d="M 278.88 307.28 
L 278.88 283.28 
" clip-path="url(#pa72f7fe40b)" style="fill: none; stroke: #000000; stroke-width: 2; stroke-linecap: round"/>
   </g>
   <g id="line2d_8">
    <path d="M 263.88 295.28 
L 278.88 295.28 
" clip-path="url(#pa72f7fe40b)" style="fill: none; stroke: #000000; stroke-width: 2; stroke-linecap: round"/>
   </g>
   <g id="line2d_9">
    <path d="M 296.88 325.28 
L 296.88 334.28 
L 296.88 343.28 
" clip-path="url(#pa72f7fe40b)" style="fill: none; stroke: #000000; stroke-width: 2; stroke-linecap: round"/>
   </g>
   <g id="line2d_10">
    <path d="M 296.88 343.28 
L 350.88 343.28 
L 404.88 343.28 
" clip-path="url(#pa72f7fe40b)" style="fill: none; stroke: #000000; stroke-width: 2; stroke-linecap: round"/>
   </g>
   <g id="line2d_11">
    <path d="M 404.88 343.28 
L 404.88 352.28 
L 404.88 361.28 
" clip-path="url(#pa72f7fe40b)" style="fill: none; stroke: #000000; stroke-width: 2; stroke-linecap: round"/>
   </g>
   <g id="line2d_12">
    <path d="M 404.88 421.28 
L 404.88 406.28 
L 389.88 406.28 
L 389.88 376.28 
L 404.88 376.28 
L 404.88 361.28 
" clip-path="url(#pa72f7fe40b)" style="fill: none; stroke: #000000; stroke-width: 2; stroke-linecap: round"/>
   </g>
   <g id="line2d_13">
    <path d="M 395.88 406.28 
L 389.88 406.28 
" clip-path="url(#pa72f7fe40b)" style="fill: none; stroke: #000000; stroke-width: 2; stroke-linecap: round"/>
   </g>
   <g id="patch_7">
    <path d="M 395.88 401.78 
L 404.88 406.28 
L 395.88 410.78 
z
" clip-path="url(#pa72f7fe40b)"/>
   </g>
   <g id="line2d_14">
    <path d="M 386.88 403.28 
L 386.88 379.28 
" clip-path="url(#pa72f7fe40b)" style="fill: none; stroke: #000000; stroke-width: 2; stroke-linecap: round"/>
   </g>
   <g id="line2d_15">
    <path d="M 371.88 391.28 
L 386.88 391.28 
" clip-path="url(#pa72f7fe40b)" style="fill: none; stroke: #000000; stroke-width: 2; stroke-linecap: round"/>
   </g>
   <g id="line2d_16">
    <path d="M 404.88 421.28 
L 404.88 435.68 
L 395.88 435.68 
L 413.88 435.68 
M 398.58 440 
L 411.18 440 
M 403.08 444.32 
L 406.68 444.32 
" clip-path="url(#pa72f7fe40b)" style="fill: none; stroke: #000000; stroke-width: 2; stroke-linecap: round"/>
   </g>
   <g id="line2d_17">
    <path d="M 371.88 391.28 
L 263.88 391.28 
L 155.88 391.28 
" clip-path="url(#pa72f7fe40b)" style="fill: none; stroke: #000000; stroke-width: 2; stroke-linecap: round"/>
   </g>
   <g id="line2d_18">
    <path d="M 122.88 361.28 
L 122.88 376.28 
L 137.88 376.28 
L 137.88 406.28 
L 122.88 406.28 
L 122.88 421.28 
" clip-path="url(#pa72f7fe40b)" style="fill: none; stroke: #000000; stroke-width: 2; stroke-linecap: round"/>
   </g>
   <g id="line2d_19">
    <path d="M 137.88 406.28 
L 131.88 406.28 
" clip-path="url(#pa72f7fe40b)" style="fill: none; stroke: #000000; stroke-width: 2; stroke-linecap: round"/>
   </g>
   <g id="patch_8">
    <path d="M 131.88 410.78 
L 122.88 406.28 
L 131.88 401.78 
z
" clip-path="url(#pa72f7fe40b)"/>
   </g>
   <g id="line2d_20">
    <path d="M 140.88 379.28 
L 140.88 403.28 
" clip-path="url(#pa72f7fe40b)" style="fill: none; stroke: #000000; stroke-width: 2; stroke-linecap: round"/>
   </g>
   <g id="line2d_21">
    <path d="M 140.88 391.28 
L 155.88 391.28 
" clip-path="url(#pa72f7fe40b)" style="fill: none; stroke: #000000; stroke-width: 2; stroke-linecap: round"/>
   </g>
   <g id="line2d_22">
    <path d="M 122.88 421.28 
L 122.88 435.68 
L 113.88 435.68 
L 131.88 435.68 
M 116.58 440 
L 129.18 440 
M 121.08 444.32 
L 124.68 444.32 
" clip-path="url(#pa72f7fe40b)" style="fill: none; stroke: #000000; stroke-width: 2; stroke-linecap: round"/>
   </g>
   <g id="line2d_23">
    <path d="M 122.88 361.28 
L 122.88 352.28 
L 122.88 343.28 
" clip-path="url(#pa72f7fe40b)" style="fill: none; stroke: #000000; stroke-width: 2; stroke-linecap: round"/>
   </g>
   <g id="line2d_24">
    <path d="M 122.88 343.28 
L 122.88 226.28 
L 122.88 109.28 
" clip-path="url(#pa72f7fe40b)" style="fill: none; stroke: #000000; stroke-width: 2; stroke-linecap: round"/>
   </g>
   <g id="line2d_25">
    <path d="M 122.88 109.28 
L 122.88 91.28 
L 122.88 91.28 
M 122.88 55.28 
L 122.88 55.28 
L 122.88 37.28 
" clip-path="url(#pa72f7fe40b)" style="fill: none; stroke: #000000; stroke-width: 2; stroke-linecap: round"/>
   </g>
   <g id="line2d_26">
    <path d="M 122.88 73.28 
L 122.88 64.28 
" clip-path="url(#pa72f7fe40b)" style="fill: none; stroke: #000000; stroke-width: 2; stroke-linecap: round"/>
   </g>
   <g id="patch_9">
    <path d="M 125.58 73.28 
L 122.88 82.28 
L 120.18 73.28 
z
" clip-path="url(#pa72f7fe40b)"/>
   </g>
   <g id="line2d_27">
    <path d="M 122.88 343.28 
L 149.88 343.28 
L 176.88 343.28 
" clip-path="url(#pa72f7fe40b)" style="fill: none; stroke: #000000; stroke-width: 2; stroke-linecap: round"/>
   </g>
   <g id="line2d_28">
    <path d="M 176.88 343.28 
L 176.88 367.28 
L 176.88 391.28 
" clip-path="url(#pa72f7fe40b)" style="fill: none; stroke: #000000; stroke-width: 2; stroke-linecap: round"/>
   </g>
   <g id="line2d_29">
    <path d="M 404.88 343.28 
L 458.88 343.28 
L 512.88 343.28 
" clip-path="url(#pa72f7fe40b)" style="fill: none; stroke: #000000; stroke-width: 2; stroke-linecap: round"/>
   </g>
   <g id="line2d_30">
    <path d="M 512.88 343.28 
L 512.88 334.28 
L 512.88 325.28 
" clip-path="url(#pa72f7fe40b)" style="fill: none; stroke: #000000; stroke-width: 2; stroke-linecap: round"/>
   </g>
   <g id="line2d_31">
    <path d="M 512.88 265.28 
L 512.88 280.28 
L 527.88 280.28 
L 527.88 310.28 
L 512.88 310.28 
L 512.88 325.28 
" clip-path="url(#pa72f7fe40b)" style="fill: none; stroke: #000000; stroke-width: 2; stroke-linecap: round"/>
   </g>
   <g id="line2d_32">
    <path d="M 527.88 310.28 
L 521.88 310.28 
" clip-path="url(#pa72f7fe40b)" style="fill: none; stroke: #000000; stroke-width: 2; stroke-linecap: round"/>
   </g>
   <g id="patch_10">
    <path d="M 521.88 314.78 
L 512.88 310.28 
L 521.88 305.78 
z
" clip-path="url(#pa72f7fe40b)"/>
   </g>
   <g id="line2d_33">
    <path d="M 530.88 283.28 
L 530.88 307.28 
" clip-path="url(#pa72f7fe40b)" style="fill: none; stroke: #000000; stroke-width: 2; stroke-linecap: round"/>
   </g>
   <g id="line2d_34">
    <path d="M 530.88 295.28 
L 545.88 295.28 
" clip-path="url(#pa72f7fe40b)" style="fill: none; stroke: #000000; stroke-width: 2; stroke-linecap: round"/>
   </g>
   <g id="line2d_35">
    <path d="M 512.88 265.28 
L 512.88 250.28 
L 497.88 250.28 
L 497.88 220.28 
L 512.88 220.28 
L 512.88 205.28 
" clip-path="url(#pa72f7fe40b)" style="fill: none; stroke: #000000; stroke-width: 2; stroke-linecap: round"/>
   </g>
   <g id="line2d_36">
    <path d="M 503.88 250.28 
L 497.88 250.28 
" clip-path="url(#pa72f7fe40b)" style="fill: none; stroke: #000000; stroke-width: 2; stroke-linecap: round"/>
   </g>
   <g id="patch_11">
    <path d="M 503.88 245.78 
L 512.88 250.28 
L 503.88 254.78 
z
" clip-path="url(#pa72f7fe40b)"/>
   </g>
   <g id="line2d_37">
    <path d="M 494.88 247.28 
L 494.88 223.28 
" clip-path="url(#pa72f7fe40b)" style="fill: none; stroke: #000000; stroke-width: 2; stroke-linecap: round"/>
   </g>
   <g id="line2d_38">
    <path d="M 479.88 235.28 
L 494.88 235.28 
" clip-path="url(#pa72f7fe40b)" style="fill: none; stroke: #000000; stroke-width: 2; stroke-linecap: round"/>
   </g>
   <g id="line2d_39">
    <path d="M 263.88 295.28 
L 254.88 295.28 
L 245.88 295.28 
" clip-path="url(#pa72f7fe40b)" style="fill: none; stroke: #000000; stroke-width: 2; stroke-linecap: round"/>
   </g>
   <g id="line2d_40">
    <path d="M 545.88 295.28 
L 554.88 295.28 
L 563.88 295.28 
" clip-path="url(#pa72f7fe40b)" style="fill: none; stroke: #000000; stroke-width: 2; stroke-linecap: round"/>
   </g>
   <g id="line2d_41">
    <path d="M 296.88 205.28 
L 296.88 187.28 
L 296.88 169.28 
" clip-path="url(#pa72f7fe40b)" style="fill: none; stroke: #000000; stroke-width: 2; stroke-linecap: round"/>
   </g>
   <g id="line2d_42">
    <path d="M 296.88 169.28 
L 296.88 160.28 
L 296.88 151.28 
" clip-path="url(#pa72f7fe40b)" style="fill: none; stroke: #000000; stroke-width: 2; stroke-linecap: round"/>
   </g>
   <g id="line2d_43">
    <path d="M 296.88 91.28 
L 296.88 106.28 
L 311.88 106.28 
L 311.88 136.28 
L 296.88 136.28 
L 296.88 151.28 
" clip-path="url(#pa72f7fe40b)" style="fill: none; stroke: #000000; stroke-width: 2; stroke-linecap: round"/>
   </g>
   <g id="line2d_44">
    <path d="M 296.88 106.28 
L 302.88 106.28 
" clip-path="url(#pa72f7fe40b)" style="fill: none; stroke: #000000; stroke-width: 2; stroke-linecap: round"/>
   </g>
   <g id="patch_12">
    <path d="M 302.88 101.78 
L 311.88 106.28 
L 302.88 110.78 
z
" clip-path="url(#pa72f7fe40b)"/>
   </g>
   <g id="line2d_45">
    <path d="M 314.88 109.28 
L 314.88 133.28 
" clip-path="url(#pa72f7fe40b)" style="fill: none; stroke: #000000; stroke-width: 2; stroke-linecap: round"/>
   </g>
   <g id="line2d_46">
    <path d="M 314.88 121.28 
L 329.88 121.28 
" clip-path="url(#pa72f7fe40b)" style="fill: none; stroke: #000000; stroke-width: 2; stroke-linecap: round"/>
   </g>
   <g id="line2d_47">
    <path d="M 296.88 91.28 
L 296.88 86.78 
L 296.88 82.28 
" clip-path="url(#pa72f7fe40b)" style="fill: none; stroke: #000000; stroke-width: 2; stroke-linecap: round"/>
   </g>
   <g id="line2d_48">
    <path d="M 296.88 22.28 
L 296.88 37.28 
L 311.88 37.28 
L 311.88 67.28 
L 296.88 67.28 
L 296.88 82.28 
" clip-path="url(#pa72f7fe40b)" style="fill: none; stroke: #000000; stroke-width: 2; stroke-linecap: round"/>
   </g>
   <g id="line2d_49">
    <path d="M 296.88 37.28 
L 302.88 37.28 
" clip-path="url(#pa72f7fe40b)" style="fill: none; stroke: #000000; stroke-width: 2; stroke-linecap: round"/>
   </g>
   <g id="patch_13">
    <path d="M 302.88 32.78 
L 311.88 37.28 
L 302.88 41.78 
z
" clip-path="url(#pa72f7fe40b)"/>
   </g>
   <g id="line2d_50">
    <path d="M 314.88 40.28 
L 314.88 64.28 
" clip-path="url(#pa72f7fe40b)" style="fill: none; stroke: #000000; stroke-width: 2; stroke-linecap: round"/>
   </g>
   <g id="line2d_51">
    <path d="M 314.88 52.28 
L 329.88 52.28 
" clip-path="url(#pa72f7fe40b)" style="fill: none; stroke: #000000; stroke-width: 2; stroke-linecap: round"/>
   </g>
   <g id="line2d_52">
    <path d="M 512.88 205.28 
L 512.88 187.28 
L 512.88 169.28 
" clip-path="url(#pa72f7fe40b)" style="fill: none; stroke: #000000; stroke-width: 2; stroke-linecap: round"/>
   </g>
   <g id="line2d_53">
    <path d="M 512.88 169.28 
L 539.88 169.28 
L 566.88 169.28 
" clip-path="url(#pa72f7fe40b)" style="fill: none; stroke: #000000; stroke-width: 2; stroke-linecap: round"/>
   </g>
   <g id="line2d_54">
    <path d="M 512.88 169.28 
L 512.88 160.28 
L 512.88 151.28 
" clip-path="url(#pa72f7fe40b)" style="fill: none; stroke: #000000; stroke-width: 2; stroke-linecap: round"/>
   </g>
   <g id="line2d_55">
    <path d="M 512.88 151.28 
L 512.88 136.28 
L 497.88 136.28 
L 497.88 106.28 
L 512.88 106.28 
L 512.88 91.28 
" clip-path="url(#pa72f7fe40b)" style="fill: none; stroke: #000000; stroke-width: 2; stroke-linecap: round"/>
   </g>
   <g id="line2d_56">
    <path d="M 506.88 106.28 
L 512.88 106.28 
" clip-path="url(#pa72f7fe40b)" style="fill: none; stroke: #000000; stroke-width: 2; stroke-linecap: round"/>
   </g>
   <g id="patch_14">
    <path d="M 506.88 110.78 
L 497.88 106.28 
L 506.88 101.78 
z
" clip-path="url(#pa72f7fe40b)"/>
   </g>
   <g id="line2d_57">
    <path d="M 494.88 133.28 
L 494.88 109.28 
" clip-path="url(#pa72f7fe40b)" style="fill: none; stroke: #000000; stroke-width: 2; stroke-linecap: round"/>
   </g>
   <g id="line2d_58">
    <path d="M 479.88 121.28 
L 494.88 121.28 
" clip-path="url(#pa72f7fe40b)" style="fill: none; stroke: #000000; stroke-width: 2; stroke-linecap: round"/>
   </g>
   <g id="line2d_59">
    <path d="M 512.88 91.28 
L 512.88 86.78 
L 512.88 82.28 
" clip-path="url(#pa72f7fe40b)" style="fill: none; stroke: #000000; stroke-width: 2; stroke-linecap: round"/>
   </g>
   <g id="line2d_60">
    <path d="M 512.88 82.28 
L 512.88 67.28 
L 497.88 67.28 
L 497.88 37.28 
L 512.88 37.28 
L 512.88 22.28 
" clip-path="url(#pa72f7fe40b)" style="fill: none; stroke: #000000; stroke-width: 2; stroke-linecap: round"/>
   </g>
   <g id="line2d_61">
    <path d="M 506.88 37.28 
L 512.88 37.28 
" clip-path="url(#pa72f7fe40b)" style="fill: none; stroke: #000000; stroke-width: 2; stroke-linecap: round"/>
   </g>
   <g id="patch_15">
    <path d="M 506.88 41.78 
L 497.88 37.28 
L 506.88 32.78 
z
" clip-path="url(#pa72f7fe40b)"/>
   </g>
   <g id="line2d_62">
    <path d="M 494.88 64.28 
L 494.88 40.28 
" clip-path="url(#pa72f7fe40b)" style="fill: none; stroke: #000000; stroke-width: 2; stroke-linecap: round"/>
   </g>
   <g id="line2d_63">
    <path d="M 479.88 52.28 
L 494.88 52.28 
" clip-path="url(#pa72f7fe40b)" style="fill: none; stroke: #000000; stroke-width: 2; stroke-linecap: round"/>
   </g>
   <g id="line2d_64">
    <path d="M 479.88 52.28 
L 404.88 52.28 
L 329.88 52.28 
" clip-path="url(#pa72f7fe40b)" style="fill: none; stroke: #000000; stroke-width: 2; stroke-linecap: round"/>
   </g>
   <g id="line2d_65">
    <path d="M 296.88 169.28 
L 323.88 169.28 
L 350.88 169.28 
" clip-path="url(#pa72f7fe40b)" style="fill: none; stroke: #000000; stroke-width: 2; stroke-linecap: round"/>
   </g>
   <g id="line2d_66">
    <path d="M 350.88 169.28 
L 350.88 110.78 
L 350.88 52.28 
" clip-path="url(#pa72f7fe40b)" style="fill: none; stroke: #000000; stroke-width: 2; stroke-linecap: round"/>
   </g>
   <g id="line2d_67">
    <path d="M 329.88 235.28 
L 367.38 235.28 
L 404.88 235.28 
" clip-path="url(#pa72f7fe40b)" style="fill: none; stroke: #000000; stroke-width: 2; stroke-linecap: round"/>
   </g>
   <g id="line2d_68">
    <path d="M 404.88 235.28 
L 442.38 235.28 
L 479.88 235.28 
" clip-path="url(#pa72f7fe40b)" style="fill: none; stroke: #000000; stroke-width: 2; stroke-linecap: round"/>
   </g>
   <g id="line2d_69">
    <path d="M 404.88 235.28 
L 404.88 271.28 
L 404.88 271.28 
M 404.88 307.28 
L 404.88 307.28 
L 404.88 343.28 
" clip-path="url(#pa72f7fe40b)" style="fill: none; stroke: #000000; stroke-width: 2; stroke-linecap: round"/>
   </g>
   <g id="line2d_70">
    <path d="M 408.48 298.28 
L 401.28 298.28 
" clip-path="url(#pa72f7fe40b)" style="fill: none; stroke: #000000; stroke-width: 2; stroke-linecap: round"/>
   </g>
   <g id="line2d_71">
    <path d="M 404.88 276.68 
L 404.88 283.88 
" clip-path="url(#pa72f7fe40b)" style="fill: none; stroke: #000000; stroke-width: 2; stroke-linecap: round"/>
   </g>
   <g id="line2d_72">
    <path d="M 408.48 280.28 
L 401.28 280.28 
" clip-path="url(#pa72f7fe40b)" style="fill: none; stroke: #000000; stroke-width: 2; stroke-linecap: round"/>
   </g>
   <g id="line2d_73">
    <path d="M 329.88 121.28 
L 367.38 121.28 
L 404.88 121.28 
" clip-path="url(#pa72f7fe40b)" style="fill: none; stroke: #000000; stroke-width: 2; stroke-linecap: round"/>
   </g>
   <g id="line2d_74">
    <path d="M 404.88 121.28 
L 442.38 121.28 
L 479.88 121.28 
" clip-path="url(#pa72f7fe40b)" style="fill: none; stroke: #000000; stroke-width: 2; stroke-linecap: round"/>
   </g>
   <g id="line2d_75">
    <path d="M 404.88 121.28 
L 404.88 103.28 
L 404.88 103.28 
M 404.88 67.28 
L 404.88 67.28 
L 404.88 49.28 
" clip-path="url(#pa72f7fe40b)" style="fill: none; stroke: #000000; stroke-width: 2; stroke-linecap: round"/>
   </g>
   <g id="line2d_76">
    <path d="M 408.48 94.28 
L 401.28 94.28 
" clip-path="url(#pa72f7fe40b)" style="fill: none; stroke: #000000; stroke-width: 2; stroke-linecap: round"/>
   </g>
   <g id="line2d_77">
    <path d="M 404.88 79.88 
L 404.88 72.68 
" clip-path="url(#pa72f7fe40b)" style="fill: none; stroke: #000000; stroke-width: 2; stroke-linecap: round"/>
   </g>
   <g id="line2d_78">
    <path d="M 408.48 76.28 
L 401.28 76.28 
" clip-path="url(#pa72f7fe40b)" style="fill: none; stroke: #000000; stroke-width: 2; stroke-linecap: round"/>
   </g>
   <g id="line2d_79">
    <path d="M 404.88 49.28 
L 404.88 35.78 
L 404.88 22.28 
" clip-path="url(#pa72f7fe40b)" style="fill: none; stroke: #000000; stroke-width: 2; stroke-linecap: round"/>
   </g>
   <g id="line2d_80">
    <path d="M 122.88 37.28 
L 122.88 29.78 
L 122.88 22.28 
" clip-path="url(#pa72f7fe40b)" style="fill: none; stroke: #000000; stroke-width: 2; stroke-linecap: round"/>
   </g>
   <g id="line2d_81">
    <path d="M 104.88 22.28 
L 317.88 22.28 
L 530.88 22.28 
" clip-path="url(#pa72f7fe40b)" style="fill: none; stroke: #000000; stroke-width: 3; stroke-linecap: round"/>
   </g>
   <g id="text_1">
    <!-- $M_\mathrm{1C}$ -->
    <g transform="translate(267.66 239.143125) scale(0.14 -0.14)">
     <defs>
      <path id="DejaVuSans-Oblique-4d" d="M 1081 4666 
L 2028 4666 
L 2572 1522 
L 4378 4666 
L 5350 4666 
L 4441 0 
L 3828 0 
L 4622 4091 
L 2791 897 
L 2175 897 
L 1581 4103 
L 788 0 
L 172 0 
L 1081 4666 
z
" transform="scale(0.015625)"/>
      <path id="DejaVuSans-31" d="M 794 531 
L 1825 531 
L 1825 4091 
L 703 3866 
L 703 4441 
L 1819 4666 
L 2450 4666 
L 2450 531 
L 3481 531 
L 3481 0 
L 794 0 
L 794 531 
z
" transform="scale(0.015625)"/>
      <path id="DejaVuSans-43" d="M 4122 4306 
L 4122 3641 
Q 3803 3938 3442 4084 
Q 3081 4231 2675 4231 
Q 1875 4231 1450 3742 
Q 1025 3253 1025 2328 
Q 1025 1406 1450 917 
Q 1875 428 2675 428 
Q 3081 428 3442 575 
Q 3803 722 4122 1019 
L 4122 359 
Q 3791 134 3420 21 
Q 3050 -91 2638 -91 
Q 1578 -91 968 557 
Q 359 1206 359 2328 
Q 359 3453 968 4101 
Q 1578 4750 2638 4750 
Q 3056 4750 3426 4639 
Q 3797 4528 4122 4306 
z
" transform="scale(0.015625)"/>
     </defs>
     <use xlink:href="#DejaVuSans-Oblique-4d" transform="translate(0 0.09375)"/>
     <use xlink:href="#DejaVuSans-31" transform="translate(86.279297 -16.3125) scale(0.7)"/>
     <use xlink:href="#DejaVuSans-43" transform="translate(130.81543 -16.3125) scale(0.7)"/>
    </g>
   </g>
   <g id="text_2">
    <!-- $M_1$ -->
    <g transform="translate(300.48 299.143125) scale(0.14 -0.14)">
     <use xlink:href="#DejaVuSans-Oblique-4d" transform="translate(0 0.09375)"/>
     <use xlink:href="#DejaVuSans-31" transform="translate(86.279297 -16.3125) scale(0.7)"/>
    </g>
   </g>
   <g id="patch_16">
    <path d="M 404.88 345.98 
C 405.596048 345.98 406.282866 345.695511 406.789188 345.189188 
C 407.295511 344.682866 407.58 343.996048 407.58 343.28 
C 407.58 342.563952 407.295511 341.877134 406.789188 341.370812 
C 406.282866 340.864489 405.596048 340.58 404.88 340.58 
C 404.163952 340.58 403.477134 340.864489 402.970812 341.370812 
C 402.464489 341.877134 402.18 342.563952 402.18 343.28 
C 402.18 343.996048 402.464489 344.682866 402.970812 345.189188 
C 403.477134 345.695511 404.163952 345.98 404.88 345.98 
z
" clip-path="url(#pa72f7fe40b)" style="stroke: #000000; stroke-width: 2; stroke-linejoin: miter"/>
   </g>
   <g id="text_3">
    <!-- $M_5$ -->
    <g transform="translate(408.48 395.143125) scale(0.14 -0.14)">
     <defs>
      <path id="DejaVuSans-35" d="M 691 4666 
L 3169 4666 
L 3169 4134 
L 1269 4134 
L 1269 2991 
Q 1406 3038 1543 3061 
Q 1681 3084 1819 3084 
Q 2600 3084 3056 2656 
Q 3513 2228 3513 1497 
Q 3513 744 3044 326 
Q 2575 -91 1722 -91 
Q 1428 -91 1123 -41 
Q 819 9 494 109 
L 494 744 
Q 775 591 1075 516 
Q 1375 441 1709 441 
Q 2250 441 2565 725 
Q 2881 1009 2881 1497 
Q 2881 1984 2565 2268 
Q 2250 2553 1709 2553 
Q 1456 2553 1204 2497 
Q 953 2441 691 2322 
L 691 4666 
z
" transform="scale(0.015625)"/>
     </defs>
     <use xlink:href="#DejaVuSans-Oblique-4d" transform="translate(0 0.09375)"/>
     <use xlink:href="#DejaVuSans-35" transform="translate(86.279297 -16.3125) scale(0.7)"/>
    </g>
   </g>
   <g id="text_4">
    <!-- $M_6$ -->
    <g transform="translate(100.52 395.143125) scale(0.14 -0.14)">
     <defs>
      <path id="DejaVuSans-36" d="M 2113 2584 
Q 1688 2584 1439 2293 
Q 1191 2003 1191 1497 
Q 1191 994 1439 701 
Q 1688 409 2113 409 
Q 2538 409 2786 701 
Q 3034 994 3034 1497 
Q 3034 2003 2786 2293 
Q 2538 2584 2113 2584 
z
M 3366 4563 
L 3366 3988 
Q 3128 4100 2886 4159 
Q 2644 4219 2406 4219 
Q 1781 4219 1451 3797 
Q 1122 3375 1075 2522 
Q 1259 2794 1537 2939 
Q 1816 3084 2150 3084 
Q 2853 3084 3261 2657 
Q 3669 2231 3669 1497 
Q 3669 778 3244 343 
Q 2819 -91 2113 -91 
Q 1303 -91 875 529 
Q 447 1150 447 2328 
Q 447 3434 972 4092 
Q 1497 4750 2381 4750 
Q 2619 4750 2861 4703 
Q 3103 4656 3366 4563 
z
" transform="scale(0.015625)"/>
     </defs>
     <use xlink:href="#DejaVuSans-Oblique-4d" transform="translate(0 0.09375)"/>
     <use xlink:href="#DejaVuSans-36" transform="translate(86.279297 -16.3125) scale(0.7)"/>
    </g>
   </g>
   <g id="patch_17">
    <path d="M 122.88 345.98 
C 123.596048 345.98 124.282866 345.695511 124.789188 345.189188 
C 125.295511 344.682866 125.58 343.996048 125.58 343.28 
C 125.58 342.563952 125.295511 341.877134 124.789188 341.370812 
C 124.282866 340.864489 123.596048 340.58 122.88 340.58 
C 122.163952 340.58 121.477134 340.864489 120.970812 341.370812 
C 120.464489 341.877134 120.18 342.563952 120.18 343.28 
C 120.18 343.996048 120.464489 344.682866 120.970812 345.189188 
C 121.477134 345.695511 122.163952 345.98 122.88 345.98 
z
" clip-path="url(#pa72f7fe40b)" style="stroke: #000000; stroke-width: 2; stroke-linejoin: miter"/>
   </g>
   <g id="text_5">
    <!-- $I_\mathrm{bias}$ -->
    <g transform="translate(76.64 77.143125) scale(0.14 -0.14)">
     <defs>
      <path id="DejaVuSans-Oblique-49" d="M 1081 4666 
L 1716 4666 
L 806 0 
L 172 0 
L 1081 4666 
z
" transform="scale(0.015625)"/>
      <path id="DejaVuSans-62" d="M 3116 1747 
Q 3116 2381 2855 2742 
Q 2594 3103 2138 3103 
Q 1681 3103 1420 2742 
Q 1159 2381 1159 1747 
Q 1159 1113 1420 752 
Q 1681 391 2138 391 
Q 2594 391 2855 752 
Q 3116 1113 3116 1747 
z
M 1159 2969 
Q 1341 3281 1617 3432 
Q 1894 3584 2278 3584 
Q 2916 3584 3314 3078 
Q 3713 2572 3713 1747 
Q 3713 922 3314 415 
Q 2916 -91 2278 -91 
Q 1894 -91 1617 61 
Q 1341 213 1159 525 
L 1159 0 
L 581 0 
L 581 4863 
L 1159 4863 
L 1159 2969 
z
" transform="scale(0.015625)"/>
      <path id="DejaVuSans-69" d="M 603 3500 
L 1178 3500 
L 1178 0 
L 603 0 
L 603 3500 
z
M 603 4863 
L 1178 4863 
L 1178 4134 
L 603 4134 
L 603 4863 
z
" transform="scale(0.015625)"/>
      <path id="DejaVuSans-61" d="M 2194 1759 
Q 1497 1759 1228 1600 
Q 959 1441 959 1056 
Q 959 750 1161 570 
Q 1363 391 1709 391 
Q 2188 391 2477 730 
Q 2766 1069 2766 1631 
L 2766 1759 
L 2194 1759 
z
M 3341 1997 
L 3341 0 
L 2766 0 
L 2766 531 
Q 2569 213 2275 61 
Q 1981 -91 1556 -91 
Q 1019 -91 701 211 
Q 384 513 384 1019 
Q 384 1609 779 1909 
Q 1175 2209 1959 2209 
L 2766 2209 
L 2766 2266 
Q 2766 2663 2505 2880 
Q 2244 3097 1772 3097 
Q 1472 3097 1187 3025 
Q 903 2953 641 2809 
L 641 3341 
Q 956 3463 1253 3523 
Q 1550 3584 1831 3584 
Q 2591 3584 2966 3190 
Q 3341 2797 3341 1997 
z
" transform="scale(0.015625)"/>
      <path id="DejaVuSans-73" d="M 2834 3397 
L 2834 2853 
Q 2591 2978 2328 3040 
Q 2066 3103 1784 3103 
Q 1356 3103 1142 2972 
Q 928 2841 928 2578 
Q 928 2378 1081 2264 
Q 1234 2150 1697 2047 
L 1894 2003 
Q 2506 1872 2764 1633 
Q 3022 1394 3022 966 
Q 3022 478 2636 193 
Q 2250 -91 1575 -91 
Q 1294 -91 989 -36 
Q 684 19 347 128 
L 347 722 
Q 666 556 975 473 
Q 1284 391 1588 391 
Q 1994 391 2212 530 
Q 2431 669 2431 922 
Q 2431 1156 2273 1281 
Q 2116 1406 1581 1522 
L 1381 1569 
Q 847 1681 609 1914 
Q 372 2147 372 2553 
Q 372 3047 722 3315 
Q 1072 3584 1716 3584 
Q 2034 3584 2315 3537 
Q 2597 3491 2834 3397 
z
" transform="scale(0.015625)"/>
     </defs>
     <use xlink:href="#DejaVuSans-Oblique-49" transform="translate(0 0.09375)"/>
     <use xlink:href="#DejaVuSans-62" transform="translate(29.492188 -16.3125) scale(0.7)"/>
     <use xlink:href="#DejaVuSans-69" transform="translate(73.925781 -16.3125) scale(0.7)"/>
     <use xlink:href="#DejaVuSans-61" transform="translate(93.374023 -16.3125) scale(0.7)"/>
     <use xlink:href="#DejaVuSans-73" transform="translate(136.269531 -16.3125) scale(0.7)"/>
    </g>
   </g>
   <g id="patch_18">
    <path d="M 176.88 393.98 
C 177.596048 393.98 178.282866 393.695511 178.789188 393.189188 
C 179.295511 392.682866 179.58 391.996048 179.58 391.28 
C 179.58 390.563952 179.295511 389.877134 178.789188 389.370812 
C 178.282866 388.864489 177.596048 388.58 176.88 388.58 
C 176.163952 388.58 175.477134 388.864489 174.970812 389.370812 
C 174.464489 389.877134 174.18 390.563952 174.18 391.28 
C 174.18 391.996048 174.464489 392.682866 174.970812 393.189188 
C 175.477134 393.695511 176.163952 393.98 176.88 393.98 
z
" clip-path="url(#pa72f7fe40b)" style="stroke: #000000; stroke-width: 2; stroke-linejoin: miter"/>
   </g>
   <g id="text_6">
    <!-- $M_2$ -->
    <g transform="translate(490.52 299.143125) scale(0.14 -0.14)">
     <defs>
      <path id="DejaVuSans-32" d="M 1228 531 
L 3431 531 
L 3431 0 
L 469 0 
L 469 531 
Q 828 903 1448 1529 
Q 2069 2156 2228 2338 
Q 2531 2678 2651 2914 
Q 2772 3150 2772 3378 
Q 2772 3750 2511 3984 
Q 2250 4219 1831 4219 
Q 1534 4219 1204 4116 
Q 875 4013 500 3803 
L 500 4441 
Q 881 4594 1212 4672 
Q 1544 4750 1819 4750 
Q 2544 4750 2975 4387 
Q 3406 4025 3406 3419 
Q 3406 3131 3298 2873 
Q 3191 2616 2906 2266 
Q 2828 2175 2409 1742 
Q 1991 1309 1228 531 
z
" transform="scale(0.015625)"/>
     </defs>
     <use xlink:href="#DejaVuSans-Oblique-4d" transform="translate(0 0.09375)"/>
     <use xlink:href="#DejaVuSans-32" transform="translate(86.279297 -16.3125) scale(0.7)"/>
    </g>
   </g>
   <g id="text_7">
    <!-- $M_\mathrm{2C}$ -->
    <g transform="translate(516.48 239.143125) scale(0.14 -0.14)">
     <use xlink:href="#DejaVuSans-Oblique-4d" transform="translate(0 0.09375)"/>
     <use xlink:href="#DejaVuSans-32" transform="translate(86.279297 -16.3125) scale(0.7)"/>
     <use xlink:href="#DejaVuSans-43" transform="translate(130.81543 -16.3125) scale(0.7)"/>
    </g>
   </g>
   <g id="patch_19">
    <path d="M 245.88 297.98 
C 246.596048 297.98 247.282866 297.695511 247.789188 297.189188 
C 248.295511 296.682866 248.58 295.996048 248.58 295.28 
C 248.58 294.563952 248.295511 293.877134 247.789188 293.370812 
C 247.282866 292.864489 246.596048 292.58 245.88 292.58 
C 245.163952 292.58 244.477134 292.864489 243.970812 293.370812 
C 243.464489 293.877134 243.18 294.563952 243.18 295.28 
C 243.18 295.996048 243.464489 296.682866 243.970812 297.189188 
C 244.477134 297.695511 245.163952 297.98 245.88 297.98 
z
" clip-path="url(#pa72f7fe40b)" style="fill: #ffffff; stroke: #000000; stroke-width: 2; stroke-linejoin: miter"/>
   </g>
   <g id="text_8">
    <!-- $V_\mathrm{in,p}$ -->
    <g transform="translate(209.34 298.22) scale(0.14 -0.14)">
     <defs>
      <path id="DejaVuSans-Oblique-56" d="M 1319 0 
L 500 4666 
L 1119 4666 
L 1797 653 
L 4063 4666 
L 4750 4666 
L 2053 0 
L 1319 0 
z
" transform="scale(0.015625)"/>
      <path id="DejaVuSans-6e" d="M 3513 2113 
L 3513 0 
L 2938 0 
L 2938 2094 
Q 2938 2591 2744 2837 
Q 2550 3084 2163 3084 
Q 1697 3084 1428 2787 
Q 1159 2491 1159 1978 
L 1159 0 
L 581 0 
L 581 3500 
L 1159 3500 
L 1159 2956 
Q 1366 3272 1645 3428 
Q 1925 3584 2291 3584 
Q 2894 3584 3203 3211 
Q 3513 2838 3513 2113 
z
" transform="scale(0.015625)"/>
      <path id="DejaVuSans-2c" d="M 750 794 
L 1409 794 
L 1409 256 
L 897 -744 
L 494 -744 
L 750 256 
L 750 794 
z
" transform="scale(0.015625)"/>
      <path id="DejaVuSans-70" d="M 1159 525 
L 1159 -1331 
L 581 -1331 
L 581 3500 
L 1159 3500 
L 1159 2969 
Q 1341 3281 1617 3432 
Q 1894 3584 2278 3584 
Q 2916 3584 3314 3078 
Q 3713 2572 3713 1747 
Q 3713 922 3314 415 
Q 2916 -91 2278 -91 
Q 1894 -91 1617 61 
Q 1341 213 1159 525 
z
M 3116 1747 
Q 3116 2381 2855 2742 
Q 2594 3103 2138 3103 
Q 1681 3103 1420 2742 
Q 1159 2381 1159 1747 
Q 1159 1113 1420 752 
Q 1681 391 2138 391 
Q 2594 391 2855 752 
Q 3116 1113 3116 1747 
z
" transform="scale(0.015625)"/>
     </defs>
     <use xlink:href="#DejaVuSans-Oblique-56" transform="translate(0 0.09375)"/>
     <use xlink:href="#DejaVuSans-69" transform="translate(68.408203 -16.3125) scale(0.7)"/>
     <use xlink:href="#DejaVuSans-6e" transform="translate(87.856445 -16.3125) scale(0.7)"/>
     <use xlink:href="#DejaVuSans-2c" transform="translate(132.22168 -16.3125) scale(0.7)"/>
     <use xlink:href="#DejaVuSans-70" transform="translate(168.110352 -16.3125) scale(0.7)"/>
    </g>
   </g>
   <g id="patch_20">
    <path d="M 563.88 297.98 
C 564.596048 297.98 565.282866 297.695511 565.789188 297.189188 
C 566.295511 296.682866 566.58 295.996048 566.58 295.28 
C 566.58 294.563952 566.295511 293.877134 565.789188 293.370812 
C 565.282866 292.864489 564.596048 292.58 563.88 292.58 
C 563.163952 292.58 562.477134 292.864489 561.970812 293.370812 
C 561.464489 293.877134 561.18 294.563952 561.18 295.28 
C 561.18 295.996048 561.464489 296.682866 561.970812 297.189188 
C 562.477134 297.695511 563.163952 297.98 563.88 297.98 
z
" clip-path="url(#pa72f7fe40b)" style="fill: #ffffff; stroke: #000000; stroke-width: 2; stroke-linejoin: miter"/>
   </g>
   <g id="text_9">
    <!-- $V_\mathrm{in,n}$ -->
    <g transform="translate(570.18 298.64) scale(0.14 -0.14)">
     <use xlink:href="#DejaVuSans-Oblique-56" transform="translate(0 0.09375)"/>
     <use xlink:href="#DejaVuSans-69" transform="translate(68.408203 -16.3125) scale(0.7)"/>
     <use xlink:href="#DejaVuSans-6e" transform="translate(87.856445 -16.3125) scale(0.7)"/>
     <use xlink:href="#DejaVuSans-2c" transform="translate(132.22168 -16.3125) scale(0.7)"/>
     <use xlink:href="#DejaVuSans-6e" transform="translate(168.110352 -16.3125) scale(0.7)"/>
    </g>
   </g>
   <g id="patch_21">
    <path d="M 296.88 171.98 
C 297.596048 171.98 298.282866 171.695511 298.789188 171.189188 
C 299.295511 170.682866 299.58 169.996048 299.58 169.28 
C 299.58 168.563952 299.295511 167.877134 298.789188 167.370812 
C 298.282866 166.864489 297.596048 166.58 296.88 166.58 
C 296.163952 166.58 295.477134 166.864489 294.970812 167.370812 
C 294.464489 167.877134 294.18 168.563952 294.18 169.28 
C 294.18 169.996048 294.464489 170.682866 294.970812 171.189188 
C 295.477134 171.695511 296.163952 171.98 296.88 171.98 
z
" clip-path="url(#pa72f7fe40b)" style="stroke: #000000; stroke-width: 2; stroke-linejoin: miter"/>
   </g>
   <g id="text_10">
    <!-- $M_\mathrm{3C}$ -->
    <g transform="translate(267.66 125.143125) scale(0.14 -0.14)">
     <defs>
      <path id="DejaVuSans-33" d="M 2597 2516 
Q 3050 2419 3304 2112 
Q 3559 1806 3559 1356 
Q 3559 666 3084 287 
Q 2609 -91 1734 -91 
Q 1441 -91 1130 -33 
Q 819 25 488 141 
L 488 750 
Q 750 597 1062 519 
Q 1375 441 1716 441 
Q 2309 441 2620 675 
Q 2931 909 2931 1356 
Q 2931 1769 2642 2001 
Q 2353 2234 1838 2234 
L 1294 2234 
L 1294 2753 
L 1863 2753 
Q 2328 2753 2575 2939 
Q 2822 3125 2822 3475 
Q 2822 3834 2567 4026 
Q 2313 4219 1838 4219 
Q 1578 4219 1281 4162 
Q 984 4106 628 3988 
L 628 4550 
Q 988 4650 1302 4700 
Q 1616 4750 1894 4750 
Q 2613 4750 3031 4423 
Q 3450 4097 3450 3541 
Q 3450 3153 3228 2886 
Q 3006 2619 2597 2516 
z
" transform="scale(0.015625)"/>
     </defs>
     <use xlink:href="#DejaVuSans-Oblique-4d" transform="translate(0 0.09375)"/>
     <use xlink:href="#DejaVuSans-33" transform="translate(86.279297 -16.3125) scale(0.7)"/>
     <use xlink:href="#DejaVuSans-43" transform="translate(130.81543 -16.3125) scale(0.7)"/>
    </g>
   </g>
   <g id="text_11">
    <!-- $M_3$ -->
    <g transform="translate(274.52 56.143125) scale(0.14 -0.14)">
     <use xlink:href="#DejaVuSans-Oblique-4d" transform="translate(0 0.09375)"/>
     <use xlink:href="#DejaVuSans-33" transform="translate(86.279297 -16.3125) scale(0.7)"/>
    </g>
   </g>
   <g id="patch_22">
    <path d="M 512.88 171.98 
C 513.596048 171.98 514.282866 171.695511 514.789188 171.189188 
C 515.295511 170.682866 515.58 169.996048 515.58 169.28 
C 515.58 168.563952 515.295511 167.877134 514.789188 167.370812 
C 514.282866 166.864489 513.596048 166.58 512.88 166.58 
C 512.163952 166.58 511.477134 166.864489 510.970812 167.370812 
C 510.464489 167.877134 510.18 168.563952 510.18 169.28 
C 510.18 169.996048 510.464489 170.682866 510.970812 171.189188 
C 511.477134 171.695511 512.163952 171.98 512.88 171.98 
z
" clip-path="url(#pa72f7fe40b)" style="stroke: #000000; stroke-width: 2; stroke-linejoin: miter"/>
   </g>
   <g id="patch_23">
    <path d="M 566.88 171.98 
C 567.596048 171.98 568.282866 171.695511 568.789188 171.189188 
C 569.295511 170.682866 569.58 169.996048 569.58 169.28 
C 569.58 168.563952 569.295511 167.877134 568.789188 167.370812 
C 568.282866 166.864489 567.596048 166.58 566.88 166.58 
C 566.163952 166.58 565.477134 166.864489 564.970812 167.370812 
C 564.464489 167.877134 564.18 168.563952 564.18 169.28 
C 564.18 169.996048 564.464489 170.682866 564.970812 171.189188 
C 565.477134 171.695511 566.163952 171.98 566.88 171.98 
z
" clip-path="url(#pa72f7fe40b)" style="fill: #ffffff; stroke: #000000; stroke-width: 2; stroke-linejoin: miter"/>
   </g>
   <g id="text_12">
    <!-- $V_\mathrm{out}$ -->
    <g transform="translate(573.18 173.143125) scale(0.14 -0.14)">
     <defs>
      <path id="DejaVuSans-6f" d="M 1959 3097 
Q 1497 3097 1228 2736 
Q 959 2375 959 1747 
Q 959 1119 1226 758 
Q 1494 397 1959 397 
Q 2419 397 2687 759 
Q 2956 1122 2956 1747 
Q 2956 2369 2687 2733 
Q 2419 3097 1959 3097 
z
M 1959 3584 
Q 2709 3584 3137 3096 
Q 3566 2609 3566 1747 
Q 3566 888 3137 398 
Q 2709 -91 1959 -91 
Q 1206 -91 779 398 
Q 353 888 353 1747 
Q 353 2609 779 3096 
Q 1206 3584 1959 3584 
z
" transform="scale(0.015625)"/>
      <path id="DejaVuSans-75" d="M 544 1381 
L 544 3500 
L 1119 3500 
L 1119 1403 
Q 1119 906 1312 657 
Q 1506 409 1894 409 
Q 2359 409 2629 706 
Q 2900 1003 2900 1516 
L 2900 3500 
L 3475 3500 
L 3475 0 
L 2900 0 
L 2900 538 
Q 2691 219 2414 64 
Q 2138 -91 1772 -91 
Q 1169 -91 856 284 
Q 544 659 544 1381 
z
M 1991 3584 
L 1991 3584 
z
" transform="scale(0.015625)"/>
      <path id="DejaVuSans-74" d="M 1172 4494 
L 1172 3500 
L 2356 3500 
L 2356 3053 
L 1172 3053 
L 1172 1153 
Q 1172 725 1289 603 
Q 1406 481 1766 481 
L 2356 481 
L 2356 0 
L 1766 0 
Q 1100 0 847 248 
Q 594 497 594 1153 
L 594 3053 
L 172 3053 
L 172 3500 
L 594 3500 
L 594 4494 
L 1172 4494 
z
" transform="scale(0.015625)"/>
     </defs>
     <use xlink:href="#DejaVuSans-Oblique-56" transform="translate(0 0.09375)"/>
     <use xlink:href="#DejaVuSans-6f" transform="translate(68.408203 -16.3125) scale(0.7)"/>
     <use xlink:href="#DejaVuSans-75" transform="translate(111.235352 -16.3125) scale(0.7)"/>
     <use xlink:href="#DejaVuSans-74" transform="translate(155.600586 -16.3125) scale(0.7)"/>
    </g>
   </g>
   <g id="text_13">
    <!-- $M_\mathrm{4C}$ -->
    <g transform="translate(516.48 125.143125) scale(0.14 -0.14)">
     <defs>
      <path id="DejaVuSans-34" d="M 2419 4116 
L 825 1625 
L 2419 1625 
L 2419 4116 
z
M 2253 4666 
L 3047 4666 
L 3047 1625 
L 3713 1625 
L 3713 1100 
L 3047 1100 
L 3047 0 
L 2419 0 
L 2419 1100 
L 313 1100 
L 313 1709 
L 2253 4666 
z
" transform="scale(0.015625)"/>
     </defs>
     <use xlink:href="#DejaVuSans-Oblique-4d" transform="translate(0 0.09375)"/>
     <use xlink:href="#DejaVuSans-34" transform="translate(86.279297 -16.3125) scale(0.7)"/>
     <use xlink:href="#DejaVuSans-43" transform="translate(130.81543 -16.3125) scale(0.7)"/>
    </g>
   </g>
   <g id="text_14">
    <!-- $M_4$ -->
    <g transform="translate(516.48 56.143125) scale(0.14 -0.14)">
     <use xlink:href="#DejaVuSans-Oblique-4d" transform="translate(0 0.09375)"/>
     <use xlink:href="#DejaVuSans-34" transform="translate(86.279297 -16.3125) scale(0.7)"/>
    </g>
   </g>
   <g id="patch_24">
    <path d="M 350.88 54.98 
C 351.596048 54.98 352.282866 54.695511 352.789188 54.189188 
C 353.295511 53.682866 353.58 52.996048 353.58 52.28 
C 353.58 51.563952 353.295511 50.877134 352.789188 50.370812 
C 352.282866 49.864489 351.596048 49.58 350.88 49.58 
C 350.163952 49.58 349.477134 49.864489 348.970812 50.370812 
C 348.464489 50.877134 348.18 51.563952 348.18 52.28 
C 348.18 52.996048 348.464489 53.682866 348.970812 54.189188 
C 349.477134 54.695511 350.163952 54.98 350.88 54.98 
z
" clip-path="url(#pa72f7fe40b)" style="stroke: #000000; stroke-width: 2; stroke-linejoin: miter"/>
   </g>
   <g id="patch_25">
    <path d="M 404.88 237.98 
C 405.596048 237.98 406.282866 237.695511 406.789188 237.189188 
C 407.295511 236.682866 407.58 235.996048 407.58 235.28 
C 407.58 234.563952 407.295511 233.877134 406.789188 233.370812 
C 406.282866 232.864489 405.596048 232.58 404.88 232.58 
C 404.163952 232.58 403.477134 232.864489 402.970812 233.370812 
C 402.464489 233.877134 402.18 234.563952 402.18 235.28 
C 402.18 235.996048 402.464489 236.682866 402.970812 237.189188 
C 403.477134 237.695511 404.163952 237.98 404.88 237.98 
z
" clip-path="url(#pa72f7fe40b)" style="stroke: #000000; stroke-width: 2; stroke-linejoin: miter"/>
   </g>
   <g id="text_15">
    <!-- $V_\mathrm{bias1}$ -->
    <g transform="translate(426.48 293.143125) scale(0.14 -0.14)">
     <use xlink:href="#DejaVuSans-Oblique-56" transform="translate(0 0.09375)"/>
     <use xlink:href="#DejaVuSans-62" transform="translate(68.408203 -16.3125) scale(0.7)"/>
     <use xlink:href="#DejaVuSans-69" transform="translate(112.841797 -16.3125) scale(0.7)"/>
     <use xlink:href="#DejaVuSans-61" transform="translate(132.290039 -16.3125) scale(0.7)"/>
     <use xlink:href="#DejaVuSans-73" transform="translate(175.185547 -16.3125) scale(0.7)"/>
     <use xlink:href="#DejaVuSans-31" transform="translate(211.655273 -16.3125) scale(0.7)"/>
    </g>
   </g>
   <g id="patch_26">
    <path d="M 404.88 123.98 
C 405.596048 123.98 406.282866 123.695511 406.789188 123.189188 
C 407.295511 122.682866 407.58 121.996048 407.58 121.28 
C 407.58 120.563952 407.295511 119.877134 406.789188 119.370812 
C 406.282866 118.864489 405.596048 118.58 404.88 118.58 
C 404.163952 118.58 403.477134 118.864489 402.970812 119.370812 
C 402.464489 119.877134 402.18 120.563952 402.18 121.28 
C 402.18 121.996048 402.464489 122.682866 402.970812 123.189188 
C 403.477134 123.695511 404.163952 123.98 404.88 123.98 
z
" clip-path="url(#pa72f7fe40b)" style="stroke: #000000; stroke-width: 2; stroke-linejoin: miter"/>
   </g>
   <g id="text_16">
    <!-- $V_\mathrm{bias2}$ -->
    <g transform="translate(426.48 89.143125) scale(0.14 -0.14)">
     <use xlink:href="#DejaVuSans-Oblique-56" transform="translate(0 0.09375)"/>
     <use xlink:href="#DejaVuSans-62" transform="translate(68.408203 -16.3125) scale(0.7)"/>
     <use xlink:href="#DejaVuSans-69" transform="translate(112.841797 -16.3125) scale(0.7)"/>
     <use xlink:href="#DejaVuSans-61" transform="translate(132.290039 -16.3125) scale(0.7)"/>
     <use xlink:href="#DejaVuSans-73" transform="translate(175.185547 -16.3125) scale(0.7)"/>
     <use xlink:href="#DejaVuSans-32" transform="translate(211.655273 -16.3125) scale(0.7)"/>
    </g>
   </g>
   <g id="text_17">
    <!-- $V_\mathrm{DD}$ -->
    <g transform="translate(305.35 15.768438) scale(0.14 -0.14)">
     <defs>
      <path id="DejaVuSans-44" d="M 1259 4147 
L 1259 519 
L 2022 519 
Q 2988 519 3436 956 
Q 3884 1394 3884 2338 
Q 3884 3275 3436 3711 
Q 2988 4147 2022 4147 
L 1259 4147 
z
M 628 4666 
L 1925 4666 
Q 3281 4666 3915 4102 
Q 4550 3538 4550 2338 
Q 4550 1131 3912 565 
Q 3275 0 1925 0 
L 628 0 
L 628 4666 
z
" transform="scale(0.015625)"/>
     </defs>
     <use xlink:href="#DejaVuSans-Oblique-56" transform="translate(0 0.09375)"/>
     <use xlink:href="#DejaVuSans-44" transform="translate(68.408203 -16.3125) scale(0.7)"/>
     <use xlink:href="#DejaVuSans-44" transform="translate(122.30957 -16.3125) scale(0.7)"/>
    </g>
   </g>
  </g>
 </g>
 <defs>
  <clipPath id="pa72f7fe40b">
   <rect x="0" y="0" width="676.248" height="449"/>
  </clipPath>
 </defs>
</svg>
